# Blender v2.93.5 OBJ File: ''
# www.blender.org
mtllib arrow.mtl
o 柱体
v 0.000000 0.001740 -0.050000
v -0.000000 1.001740 -0.112012
v 0.009755 0.001740 -0.049039
v 0.022892 0.001740 -0.044695
v 0.034536 1.001764 -0.107054
v 0.035355 0.001740 -0.035355
v 0.071255 1.001757 -0.086824
v 0.041573 0.001740 -0.027779
v 0.093135 1.001740 -0.062231
v 0.046194 0.001740 -0.019134
v 0.049039 0.001740 -0.009755
v 0.107483 1.001757 -0.032605
v 0.050053 0.001740 0.004045
v 0.112120 1.001768 0.009061
v 0.046194 0.001740 0.019134
v 0.103486 1.001740 0.042865
v 0.041573 0.001740 0.027779
v 0.035355 0.001740 0.035355
v 0.086823 1.001760 0.071254
v 0.027779 0.001740 0.041573
v 0.019134 0.001740 0.046194
v 0.053122 1.001765 0.099384
v 0.009755 0.001740 0.049039
v -0.000000 0.001740 0.050000
v 0.009061 1.001768 0.112120
v -0.009755 0.001740 0.049039
v -0.019134 0.001740 0.046194
v -0.034536 1.001764 0.107054
v -0.031171 0.001740 0.039370
v -0.062231 1.001740 0.093135
v -0.041573 0.001740 0.027779
v -0.086822 1.001764 0.071253
v -0.046194 0.001740 0.019134
v -0.103486 1.001740 0.042865
v -0.049039 0.001740 0.009755
v -0.050000 0.001740 -0.000000
v -0.112122 1.001764 0.009061
v -0.049039 0.001740 -0.009755
v -0.046194 0.001740 -0.019134
v -0.107054 1.001764 -0.034536
v -0.041573 0.001740 -0.027779
v -0.093135 1.001740 -0.062231
v -0.035355 0.001740 -0.035355
v -0.027779 0.001740 -0.041573
v -0.069824 1.001768 -0.088190
v -0.019134 0.001740 -0.046194
v -0.009755 0.001740 -0.049039
v -0.032604 1.001760 -0.107482
v 0.009755 1.001740 -0.049039
v 0.000000 1.001740 -0.050000
v 0.019134 1.001740 -0.046194
v 0.027779 1.001740 -0.041573
v 0.035355 1.001740 -0.035355
v 0.044695 1.001740 -0.022892
v 0.049039 1.001740 -0.009755
v 0.050000 1.001740 0.000000
v 0.049039 1.001740 0.009755
v 0.046194 1.001740 0.019134
v 0.041573 1.001740 0.027779
v 0.035355 1.001740 0.035355
v 0.027779 1.001740 0.041573
v 0.019134 1.001740 0.046194
v 0.009755 1.001740 0.049039
v -0.005798 1.001740 0.049880
v -0.019134 1.001740 0.046194
v -0.027779 1.001740 0.041573
v -0.035355 1.001740 0.035355
v -0.041573 1.001740 0.027779
v -0.046194 1.001740 0.019134
v -0.049039 1.001740 0.009755
v -0.050000 1.001740 -0.000000
v -0.049039 1.001740 -0.009755
v -0.043865 1.001740 -0.024445
v -0.035355 1.001740 -0.035355
v -0.027779 1.001740 -0.041573
v -0.019134 1.001740 -0.046194
v -0.009755 1.001740 -0.049039
v 0.000895 1.276776 -0.000209
v -0.001012 1.276544 0.000236
vt 1.000000 1.000000
vt 0.968750 0.500000
vt 1.000000 0.500000
vt 0.968750 1.000000
vt 0.924683 0.500000
vt 0.906250 1.000000
vt 0.875000 0.500000
vt 0.875000 1.000000
vt 0.843750 0.500000
vt 0.825317 1.000000
vt 0.812500 0.500000
vt 0.781250 0.500000
vt 0.781250 1.000000
vt 0.737183 0.500000
vt 0.718750 1.000000
vt 0.687500 0.500000
vt 0.687500 1.000000
vt 0.656250 0.500000
vt 0.656250 1.000000
vt 0.625000 0.500000
vt 0.625000 1.000000
vt 0.593750 0.500000
vt 0.593750 1.000000
vt 0.562500 0.500000
vt 0.562500 1.000000
vt 0.531250 0.500000
vt 0.531250 1.000000
vt 0.500000 0.500000
vt 0.481567 1.000000
vt 0.468750 0.500000
vt 0.437500 0.500000
vt 0.437500 1.000000
vt 0.393433 0.500000
vt 0.375000 1.000000
vt 0.343750 0.500000
vt 0.343750 1.000000
vt 0.312500 0.500000
vt 0.312500 1.000000
vt 0.281250 0.500000
vt 0.281250 1.000000
vt 0.250000 0.500000
vt 0.250000 1.000000
vt 0.218750 0.500000
vt 0.218750 1.000000
vt 0.187500 0.500000
vt 0.169067 1.000000
vt 0.156250 0.500000
vt 0.125000 0.500000
vt 0.125000 1.000000
vt 0.093750 0.500000
vt 0.093750 1.000000
vt 0.062500 0.500000
vt 0.062500 1.000000
vt 0.031250 0.500000
vt 0.031250 1.000000
vt 0.000000 0.500000
vt 0.985388 0.296822
vt 0.796822 0.014612
vt 0.514612 0.203178
vt 0.314292 0.449183
vt 0.250000 0.490000
vt 0.250000 0.460282
vt 0.382759 0.411767
vt 0.341844 0.471731
vt 0.462634 0.358863
vt 0.419706 0.419706
vt 0.450258 0.310748
vt 0.424843 0.366826
vt 0.490000 0.250000
vt 0.485388 0.296822
vt 0.444275 0.169529
vt 0.485388 0.203178
vt 0.458625 0.233173
vt 0.411767 0.117241
vt 0.471731 0.158156
vt 0.348649 0.065441
vt 0.419706 0.080294
vt 0.296822 0.014612
vt 0.341844 0.028269
vt 0.185708 0.050817
vt 0.222382 0.012720
vt 0.266827 0.041375
vt 0.133174 0.075157
vt 0.158156 0.028269
vt 0.080294 0.080294
vt 0.116663 0.050447
vt 0.088232 0.117241
vt 0.050447 0.116663
vt 0.055725 0.169529
vt 0.041375 0.233173
vt 0.028269 0.158156
vt 0.050817 0.314292
vt 0.010000 0.250000
vt 0.041351 0.366318
vt 0.014612 0.296822
vt 0.075157 0.366826
vt 0.080294 0.419706
vt 0.189252 0.450258
vt 0.116663 0.449553
vt 0.120104 0.414117
vt 0.203178 0.485388
vt 0.158156 0.471731
vt 0.110254 0.217988
vt 0.371030 0.281199
vt 0.937500 1.000000
vt 0.750000 1.000000
vt 0.406250 1.000000
vt 0.000000 1.000000
vt 0.703178 0.485388
vt 0.750000 0.490000
vt 0.796822 0.485388
vt 0.858863 0.462634
vt 0.919706 0.419706
vt 0.949553 0.383337
vt 0.971731 0.341844
vt 0.988109 0.230796
vt 0.971731 0.158156
vt 0.949553 0.116663
vt 0.919706 0.080294
vt 0.883337 0.050447
vt 0.841844 0.028269
vt 0.750000 0.010000
vt 0.703178 0.014612
vt 0.658156 0.028269
vt 0.601746 0.062689
vt 0.550447 0.116663
vt 0.528269 0.158156
vt 0.510000 0.250000
vt 0.514612 0.296822
vt 0.528269 0.341844
vt 0.550447 0.383337
vt 0.580294 0.419706
vt 0.616663 0.449553
vt 0.658156 0.471731
vt 0.296822 0.485388
vt 0.383337 0.449553
vt 0.449553 0.116663
vt 0.383337 0.050447
vt 0.014612 0.203178
vn 0.0980 0.0000 -0.9952
vn 0.3140 0.0000 -0.9494
vn 0.5997 -0.0004 -0.8002
vn 0.7730 0.0000 -0.6344
vn 0.8819 -0.0004 -0.4714
vn 0.9569 0.0003 -0.2903
vn 0.9973 0.0000 -0.0733
vn 0.9688 -0.0004 0.2478
vn 0.8819 0.0000 0.4714
vn 0.7730 0.0000 0.6344
vn 0.6344 0.0000 0.7730
vn 0.4714 0.0000 0.8819
vn 0.2903 0.0000 0.9569
vn 0.0980 0.0000 0.9952
vn -0.0980 -0.0004 0.9952
vn -0.2903 0.0003 0.9569
vn -0.4932 0.0000 0.8699
vn -0.7443 -0.0004 0.6679
vn -0.8819 0.0000 0.4714
vn -0.9569 0.0000 0.2903
vn -0.9952 0.0000 0.0980
vn -0.9952 0.0000 -0.0980
vn -0.9569 0.0000 -0.2903
vn -0.8819 -0.0004 -0.4714
vn -0.7730 0.0003 -0.6344
vn -0.6344 0.0000 -0.7730
vn -0.4714 0.0000 -0.8819
vn -0.2903 0.0000 -0.9569
vn -0.0980 0.0000 -0.9952
vn 0.0000 -1.0000 -0.0000
vn 0.0007 -1.0000 -0.0000
vn 0.0000 -1.0000 -0.0004
vn 0.0002 -1.0000 -0.0002
vn 0.0003 -1.0000 0.0004
vn 0.0003 -1.0000 -0.0000
vn 0.0004 -1.0000 -0.0007
vn -0.0002 -1.0000 0.0006
vn 0.0001 -1.0000 0.0003
vn 0.0001 -1.0000 0.0004
vn 0.0006 -1.0000 0.0005
vn -0.0003 -1.0000 0.0002
vn 0.0002 -1.0000 0.0007
vn -0.0003 -1.0000 -0.0006
vn -0.0004 -1.0000 -0.0000
vn -0.0003 -1.0000 -0.0001
vn -0.0005 -1.0000 0.0006
vn -0.0004 -1.0000 -0.0003
vn -0.0001 -1.0000 -0.0003
vn -0.0006 -1.0000 -0.0001
vn -0.8996 0.3712 0.2301
vn 0.8006 0.3722 0.4696
vn -0.9229 0.3697 -0.1073
vn -0.8290 0.3727 -0.4170
vn 0.1316 0.3729 -0.9185
vn -0.6907 0.3724 -0.6198
vn 0.2578 0.3719 0.8918
vn 0.4482 0.3708 -0.8134
vn -0.4271 0.3722 -0.8241
vn -0.1072 0.3716 0.9222
vn -0.4169 0.3731 0.8289
vn 0.8355 0.3715 -0.4049
vn -0.6169 0.3719 0.6937
vn 0.2903 -0.0003 -0.9569
vn 0.4714 0.0004 -0.8819
vn 0.6344 0.0000 -0.7730
vn 0.8002 0.0004 -0.5997
vn 0.9494 0.0000 -0.3140
vn 0.9952 -0.0003 -0.0980
vn 0.9952 0.0004 0.0980
vn 0.9569 0.0000 0.2903
vn 0.0540 0.0004 0.9985
vn -0.2664 0.0000 0.9639
vn -0.4714 -0.0003 0.8819
vn -0.6344 0.0004 0.7730
vn -0.7730 0.0000 0.6344
vn -0.9432 0.0004 -0.3322
vn -0.7885 0.0000 -0.6150
vn 0.0001 -1.0000 -0.0004
vn 0.0001 -1.0000 -0.0003
vn -0.0003 -1.0000 -0.0004
vn 0.0003 -1.0000 -0.0001
vn 0.0004 -1.0000 0.0002
vn 0.0004 -1.0000 0.0000
vn 0.0003 -1.0000 0.0001
vn 0.0002 -1.0000 0.0002
vn 0.0003 -1.0000 0.0003
vn 0.0002 -1.0000 0.0003
vn 0.0000 -1.0000 0.0004
vn -0.0001 -1.0000 0.0004
vn -0.0007 -1.0000 -0.0003
vn -0.0004 -1.0000 0.0001
vn 0.0003 -1.0000 -0.0007
vn -0.0003 -1.0000 -0.0003
vn -0.0002 -1.0000 -0.0003
vn 0.9233 0.3700 -0.1029
vn -0.8008 0.3715 0.4698
vn 0.8995 0.3715 0.2300
vn 0.5951 0.3712 0.7128
vn 0.1666 0.3771 0.9111
vn -0.2537 0.3782 -0.8903
vn 0.6937 0.3718 -0.6169
vn -0.1274 0.3739 -0.9187
usemtl None
s off
f 50/1/1 3/2/1 1/3/1
f 49/4/2 4/5/2 3/2/2
f 52/6/3 6/7/3 4/5/3
f 53/8/4 8/9/4 6/7/4
f 54/10/5 10/11/5 8/9/5
f 54/10/6 11/12/6 10/11/6
f 55/13/7 13/14/7 11/12/7
f 57/15/8 15/16/8 13/14/8
f 58/17/9 17/18/9 15/16/9
f 59/19/10 18/20/10 17/18/10
f 60/21/11 20/22/11 18/20/11
f 61/23/12 21/24/12 20/22/12
f 62/25/13 23/26/13 21/24/13
f 63/27/14 24/28/14 23/26/14
f 64/29/15 26/30/15 24/28/15
f 64/29/16 27/31/16 26/30/16
f 65/32/17 29/33/17 27/31/17
f 67/34/18 31/35/18 29/33/18
f 68/36/19 33/37/19 31/35/19
f 69/38/20 35/39/20 33/37/20
f 70/40/21 36/41/21 35/39/21
f 71/42/22 38/43/22 36/41/22
f 72/44/23 39/45/23 38/43/23
f 73/46/24 41/47/24 39/45/24
f 73/46/25 43/48/25 41/47/25
f 74/49/26 44/50/26 43/48/26
f 75/51/27 46/52/27 44/50/27
f 76/53/28 47/54/28 46/52/28
f 77/55/29 1/56/29 47/54/29
f 11/57/30 23/58/30 35/59/30
f 5/60/31 50/61/31 2/62/31
f 7/63/32 51/64/32 5/60/32
f 7/63/33 54/65/33 53/66/33
f 12/67/34 54/65/34 9/68/34
f 12/67/35 56/69/35 55/70/35
f 16/71/36 57/72/36 14/73/36
f 19/74/37 58/75/37 16/71/37
f 22/76/38 60/77/38 19/74/38
f 22/76/39 63/78/39 62/79/39
f 28/80/39 64/81/39 25/82/39
f 30/83/40 65/84/40 28/80/40
f 30/83/30 67/85/30 66/86/30
f 32/87/41 68/88/41 67/85/41
f 34/89/42 68/88/42 32/87/42
f 37/90/43 69/91/43 34/89/43
f 40/92/44 71/93/44 37/90/44
f 40/92/45 73/94/45 72/95/45
f 42/96/46 73/94/46 40/92/46
f 42/96/30 74/97/30 73/94/30
f 48/98/47 75/99/47 45/100/47
f 48/98/48 77/101/48 76/102/48
f 2/62/49 77/101/49 48/98/49
f 34/89/50 79/103/50 37/90/50
f 16/71/51 78/104/51 19/74/51
f 37/90/52 79/103/52 40/92/52
f 40/92/53 79/103/53 42/96/53
f 2/62/54 78/104/54 5/60/54
f 42/96/55 79/103/55 45/100/55
f 22/76/56 78/104/56 25/82/56
f 5/60/57 78/104/57 7/63/57
f 45/100/58 79/103/58 48/98/58
f 25/82/59 79/103/59 28/80/59
f 28/80/60 79/103/60 30/83/60
f 9/68/61 78/104/61 12/67/61
f 30/83/62 79/103/62 32/87/62
f 50/1/1 49/4/1 3/2/1
f 49/4/63 51/105/63 4/5/63
f 51/105/64 52/6/64 4/5/64
f 52/6/65 53/8/65 6/7/65
f 53/8/66 54/10/66 8/9/66
f 54/10/67 55/13/67 11/12/67
f 55/13/68 56/106/68 13/14/68
f 56/106/69 57/15/69 13/14/69
f 57/15/70 58/17/70 15/16/70
f 58/17/9 59/19/9 17/18/9
f 59/19/10 60/21/10 18/20/10
f 60/21/11 61/23/11 20/22/11
f 61/23/12 62/25/12 21/24/12
f 62/25/13 63/27/13 23/26/13
f 63/27/71 64/29/71 24/28/71
f 64/29/72 65/32/72 27/31/72
f 65/32/73 66/107/73 29/33/73
f 66/107/74 67/34/74 29/33/74
f 67/34/75 68/36/75 31/35/75
f 68/36/19 69/38/19 33/37/19
f 69/38/20 70/40/20 35/39/20
f 70/40/21 71/42/21 36/41/21
f 71/42/22 72/44/22 38/43/22
f 72/44/76 73/46/76 39/45/76
f 73/46/77 74/49/77 43/48/77
f 74/49/26 75/51/26 44/50/26
f 75/51/27 76/53/27 46/52/27
f 76/53/28 77/55/28 47/54/28
f 77/55/29 50/108/29 1/56/29
f 47/109/30 1/110/30 3/111/30
f 4/112/30 6/113/30 8/114/30
f 8/114/30 10/115/30 11/57/30
f 13/116/30 15/117/30 17/118/30
f 17/118/30 18/119/30 20/120/30
f 20/120/30 21/121/30 23/58/30
f 23/58/30 24/122/30 26/123/30
f 26/123/30 27/124/30 29/125/30
f 31/126/30 33/127/30 35/59/30
f 35/59/30 36/128/30 38/129/30
f 38/129/30 39/130/30 35/59/30
f 39/130/30 41/131/30 35/59/30
f 41/131/30 43/132/30 44/133/30
f 44/133/30 46/134/30 41/131/30
f 46/134/30 47/109/30 41/131/30
f 47/109/30 3/111/30 11/57/30
f 3/111/30 4/112/30 11/57/30
f 4/112/30 8/114/30 11/57/30
f 11/57/30 13/116/30 17/118/30
f 17/118/30 20/120/30 11/57/30
f 20/120/30 23/58/30 11/57/30
f 23/58/30 26/123/30 35/59/30
f 26/123/30 29/125/30 35/59/30
f 29/125/30 31/126/30 35/59/30
f 35/59/30 41/131/30 47/109/30
f 47/109/30 11/57/30 35/59/30
f 5/60/32 49/135/32 50/61/32
f 5/60/78 51/64/78 49/135/78
f 7/63/79 52/136/79 51/64/79
f 7/63/33 53/66/33 52/136/33
f 7/63/80 9/68/80 54/65/80
f 12/67/81 55/70/81 54/65/81
f 12/67/82 14/73/82 56/69/82
f 14/73/83 57/72/83 56/69/83
f 16/71/30 58/75/30 57/72/30
f 19/74/84 59/137/84 58/75/84
f 19/74/85 60/77/85 59/137/85
f 22/76/86 61/138/86 60/77/86
f 22/76/87 62/79/87 61/138/87
f 22/76/88 25/82/88 63/78/88
f 25/82/88 64/81/88 63/78/88
f 28/80/89 65/84/89 64/81/89
f 30/83/30 66/86/30 65/84/30
f 30/83/90 32/87/90 67/85/90
f 34/89/30 69/91/30 68/88/30
f 37/90/91 70/139/91 69/91/91
f 37/90/44 71/93/44 70/139/44
f 40/92/44 72/95/44 71/93/44
f 42/96/92 45/100/92 74/97/92
f 45/100/93 75/99/93 74/97/93
f 48/98/94 76/102/94 75/99/94
f 2/62/30 50/61/30 77/101/30
f 14/73/95 12/67/95 78/104/95
f 34/89/96 32/87/96 79/103/96
f 16/71/97 14/73/97 78/104/97
f 22/76/98 19/74/98 78/104/98
f 25/82/99 78/104/99 79/103/99
f 48/98/100 79/103/100 78/104/100
f 9/68/101 7/63/101 78/104/101
f 2/62/102 48/98/102 78/104/102
