# Blender v2.93.5 OBJ File: ''
# www.blender.org
mtllib Frame.mtl
o Cube
v 0.250000 -0.020000 -0.020000
v -0.250000 -0.020000 -0.020000
v 0.250000 -0.020000 0.020000
v -0.250000 -0.020000 0.020000
v 0.250000 0.020000 -0.020000
v -0.250000 0.020000 -0.020000
v 0.250000 0.020000 0.020000
v -0.250000 0.020000 0.020000
v 0.250000 -0.009852 0.010979
v -0.250000 -0.009852 0.010979
v 0.250000 0.009852 0.010979
v -0.250000 0.009852 0.010979
v 0.250000 0.009852 0.020000
v 0.250000 -0.009852 0.020000
v -0.250000 0.009852 0.020000
v -0.250000 -0.009852 0.020000
v 0.250000 0.010979 0.009852
v -0.250000 0.010979 0.009852
v 0.250000 0.010979 -0.009852
v -0.250000 0.010979 -0.009852
v 0.250000 0.020000 0.009852
v 0.250000 0.020000 -0.009852
v -0.250000 0.020000 0.009852
v -0.250000 0.020000 -0.009852
v 0.250000 0.009852 -0.010979
v -0.250000 0.009852 -0.010979
v 0.250000 -0.009852 -0.010979
v -0.250000 -0.009852 -0.010979
v 0.250000 0.009852 -0.020000
v 0.250000 -0.009852 -0.020000
v -0.250000 0.009852 -0.020000
v -0.250000 -0.009852 -0.020000
v 0.250000 -0.010979 -0.009852
v -0.250000 -0.010979 -0.009852
v 0.250000 -0.010979 0.009852
v -0.250000 -0.010979 0.009852
v 0.250000 -0.020000 0.009852
v 0.250000 -0.020000 -0.009852
v -0.250000 -0.020000 0.009852
v -0.250000 -0.020000 -0.009852
v -0.050000 0.518000 -0.020000
v -0.050000 0.018000 -0.020000
v -0.050000 0.518000 0.020000
v -0.050000 0.018000 0.020000
v -0.090000 0.518000 -0.020000
v -0.090000 0.018000 -0.020000
v -0.090000 0.518000 0.020000
v -0.090000 0.018000 0.020000
v -0.060148 0.518000 0.010979
v -0.060148 0.018000 0.010979
v -0.079852 0.518000 0.010979
v -0.079852 0.018000 0.010979
v -0.079852 0.518000 0.020000
v -0.060148 0.518000 0.020000
v -0.079852 0.018000 0.020000
v -0.060148 0.018000 0.020000
v -0.080979 0.518000 0.009852
v -0.080979 0.018000 0.009852
v -0.080979 0.518000 -0.009852
v -0.080979 0.018000 -0.009852
v -0.090000 0.518000 0.009852
v -0.090000 0.518000 -0.009852
v -0.090000 0.018000 0.009852
v -0.090000 0.018000 -0.009852
v -0.079852 0.518000 -0.010979
v -0.079852 0.018000 -0.010979
v -0.060148 0.518000 -0.010979
v -0.060148 0.018000 -0.010979
v -0.079852 0.518000 -0.020000
v -0.060148 0.518000 -0.020000
v -0.079852 0.018000 -0.020000
v -0.060148 0.018000 -0.020000
v -0.059021 0.518000 -0.009852
v -0.059021 0.018000 -0.009852
v -0.059021 0.518000 0.009852
v -0.059021 0.018000 0.009852
v -0.050000 0.518000 0.009852
v -0.050000 0.518000 -0.009852
v -0.050000 0.018000 0.009852
v -0.050000 0.018000 -0.009852
v 0.050000 0.430000 -0.020000
v -0.050000 0.430000 -0.020000
v 0.050000 0.430000 0.020000
v -0.050000 0.430000 0.020000
v 0.050000 0.470000 -0.020000
v -0.050000 0.470000 -0.020000
v 0.050000 0.470000 0.020000
v -0.050000 0.470000 0.020000
v 0.050000 0.440148 0.010979
v -0.050000 0.440148 0.010979
v 0.050000 0.459852 0.010979
v -0.050000 0.459852 0.010979
v 0.050000 0.459852 0.020000
v 0.050000 0.440148 0.020000
v -0.050000 0.459852 0.020000
v -0.050000 0.440148 0.020000
v 0.050000 0.460979 0.009852
v -0.050000 0.460979 0.009852
v 0.050000 0.460979 -0.009852
v -0.050000 0.460979 -0.009852
v 0.050000 0.470000 0.009852
v 0.050000 0.470000 -0.009852
v -0.050000 0.470000 0.009852
v -0.050000 0.470000 -0.009852
v 0.050000 0.459852 -0.010979
v -0.050000 0.459852 -0.010979
v 0.050000 0.440148 -0.010979
v -0.050000 0.440148 -0.010979
v 0.050000 0.459852 -0.020000
v 0.050000 0.440148 -0.020000
v -0.050000 0.459852 -0.020000
v -0.050000 0.440148 -0.020000
v 0.050000 0.439021 -0.009852
v -0.050000 0.439021 -0.009852
v 0.050000 0.439021 0.009852
v -0.050000 0.439021 0.009852
v 0.050000 0.430000 0.009852
v 0.050000 0.430000 -0.009852
v -0.050000 0.430000 0.009852
v -0.050000 0.430000 -0.009852
v 0.090000 0.518000 -0.020000
v 0.090000 0.018000 -0.020000
v 0.090000 0.518000 0.020000
v 0.090000 0.018000 0.020000
v 0.050000 0.518000 -0.020000
v 0.050000 0.018000 -0.020000
v 0.050000 0.518000 0.020000
v 0.050000 0.018000 0.020000
v 0.079852 0.518000 0.010979
v 0.079852 0.018000 0.010979
v 0.060148 0.518000 0.010979
v 0.060148 0.018000 0.010979
v 0.060148 0.518000 0.020000
v 0.079852 0.518000 0.020000
v 0.060148 0.018000 0.020000
v 0.079852 0.018000 0.020000
v 0.059021 0.518000 0.009852
v 0.059021 0.018000 0.009852
v 0.059021 0.518000 -0.009852
v 0.059021 0.018000 -0.009852
v 0.050000 0.518000 0.009852
v 0.050000 0.518000 -0.009852
v 0.050000 0.018000 0.009852
v 0.050000 0.018000 -0.009852
v 0.060148 0.518000 -0.010979
v 0.060148 0.018000 -0.010979
v 0.079852 0.518000 -0.010979
v 0.079852 0.018000 -0.010979
v 0.060148 0.518000 -0.020000
v 0.079852 0.518000 -0.020000
v 0.060148 0.018000 -0.020000
v 0.079852 0.018000 -0.020000
v 0.080979 0.518000 -0.009852
v 0.080979 0.018000 -0.009852
v 0.080979 0.518000 0.009852
v 0.080979 0.018000 0.009852
v 0.090000 0.518000 0.009852
v 0.090000 0.518000 -0.009852
v 0.090000 0.018000 0.009852
v 0.090000 0.018000 -0.009852
v 0.049208 -0.021050 -0.478274
v -0.050792 -0.021050 -0.478274
v 0.049208 0.018950 -0.478274
v -0.050792 0.018950 -0.478274
v 0.049208 -0.021050 -0.518274
v -0.050792 -0.021050 -0.518274
v 0.049208 0.018950 -0.518274
v -0.050792 0.018950 -0.518274
v 0.049208 0.009929 -0.488422
v -0.050792 0.009929 -0.488422
v 0.049208 0.009929 -0.508127
v -0.050792 0.009929 -0.508127
v 0.049208 0.018950 -0.508127
v 0.049208 0.018950 -0.488422
v -0.050792 0.018950 -0.508127
v -0.050792 0.018950 -0.488422
v 0.049208 0.008802 -0.509254
v -0.050792 0.008802 -0.509254
v 0.049208 -0.010902 -0.509254
v -0.050792 -0.010902 -0.509254
v 0.049208 0.008802 -0.518274
v 0.049208 -0.010902 -0.518274
v -0.050792 0.008802 -0.518274
v -0.050792 -0.010902 -0.518274
v 0.049208 -0.012030 -0.508127
v -0.050792 -0.012030 -0.508127
v 0.049208 -0.012030 -0.488422
v -0.050792 -0.012030 -0.488422
v 0.049208 -0.021050 -0.508127
v 0.049208 -0.021050 -0.488422
v -0.050792 -0.021050 -0.508127
v -0.050792 -0.021050 -0.488422
v 0.049208 -0.010902 -0.487295
v -0.050792 -0.010902 -0.487295
v 0.049208 0.008802 -0.487295
v -0.050792 0.008802 -0.487295
v 0.049208 0.008802 -0.478274
v 0.049208 -0.010902 -0.478274
v -0.050792 0.008802 -0.478274
v -0.050792 -0.010902 -0.478274
v -0.050792 -0.021050 -0.518494
v -0.050792 -0.021050 -0.018494
v -0.050792 0.018950 -0.518494
v -0.050792 0.018950 -0.018494
v -0.090792 -0.021050 -0.518494
v -0.090792 -0.021050 -0.018494
v -0.090792 0.018950 -0.518494
v -0.090792 0.018950 -0.018494
v -0.060939 0.009929 -0.518494
v -0.060939 0.009929 -0.018494
v -0.080644 0.009929 -0.518494
v -0.080644 0.009929 -0.018494
v -0.080644 0.018950 -0.518494
v -0.060939 0.018950 -0.518494
v -0.080644 0.018950 -0.018494
v -0.060939 0.018950 -0.018494
v -0.081771 0.008802 -0.518494
v -0.081771 0.008802 -0.018494
v -0.081771 -0.010903 -0.518494
v -0.081771 -0.010902 -0.018494
v -0.090792 0.008802 -0.518494
v -0.090792 -0.010903 -0.518494
v -0.090792 0.008802 -0.018494
v -0.090792 -0.010902 -0.018494
v -0.080644 -0.012030 -0.518494
v -0.080644 -0.012030 -0.018494
v -0.060939 -0.012030 -0.518494
v -0.060939 -0.012030 -0.018494
v -0.080644 -0.021050 -0.518494
v -0.060939 -0.021050 -0.518494
v -0.080644 -0.021050 -0.018494
v -0.060939 -0.021050 -0.018494
v -0.059812 -0.010903 -0.518494
v -0.059812 -0.010902 -0.018494
v -0.059812 0.008802 -0.518494
v -0.059812 0.008802 -0.018494
v -0.050792 0.008802 -0.518494
v -0.050792 -0.010903 -0.518494
v -0.050792 0.008802 -0.018494
v -0.050792 -0.010902 -0.018494
v 0.089208 -0.021050 -0.518494
v 0.089208 -0.021050 -0.018494
v 0.089208 0.018950 -0.518494
v 0.089208 0.018950 -0.018494
v 0.049208 -0.021050 -0.518494
v 0.049208 -0.021050 -0.018494
v 0.049208 0.018950 -0.518494
v 0.049208 0.018950 -0.018494
v 0.079061 0.009929 -0.518494
v 0.079061 0.009929 -0.018494
v 0.059356 0.009929 -0.518494
v 0.059356 0.009929 -0.018494
v 0.059356 0.018950 -0.518494
v 0.079061 0.018950 -0.518494
v 0.059356 0.018950 -0.018494
v 0.079061 0.018950 -0.018494
v 0.058229 0.008802 -0.518494
v 0.058229 0.008802 -0.018494
v 0.058229 -0.010903 -0.518494
v 0.058229 -0.010902 -0.018494
v 0.049208 0.008802 -0.518494
v 0.049208 -0.010903 -0.518494
v 0.049208 0.008802 -0.018494
v 0.049208 -0.010902 -0.018494
v 0.059356 -0.012030 -0.518494
v 0.059356 -0.012030 -0.018494
v 0.079061 -0.012030 -0.518494
v 0.079061 -0.012030 -0.018494
v 0.059356 -0.021050 -0.518494
v 0.079061 -0.021050 -0.518494
v 0.059356 -0.021050 -0.018494
v 0.079061 -0.021050 -0.018494
v 0.080188 -0.010903 -0.518494
v 0.080188 -0.010902 -0.018494
v 0.080188 0.008802 -0.518494
v 0.080188 0.008802 -0.018494
v 0.089208 0.008802 -0.518494
v 0.089208 -0.010903 -0.518494
v 0.089208 0.008802 -0.018494
v 0.089208 -0.010902 -0.018494
vt 0.811577 0.556379
vt 0.811577 0.500000
vt 0.875000 0.500000
vt 0.875000 0.563423
vt 0.818621 0.563423
vt 0.818621 0.686577
vt 0.875000 0.686577
vt 0.875000 0.750000
vt 0.811577 0.750000
vt 0.811577 0.693621
vt 0.688423 0.693621
vt 0.688423 0.750000
vt 0.625000 0.750000
vt 0.625000 0.686577
vt 0.681379 0.686577
vt 0.681379 0.563423
vt 0.625000 0.563423
vt 0.625000 0.500000
vt 0.688423 0.500000
vt 0.688423 0.556379
vt 0.625000 0.936577
vt 0.625000 1.000000
vt 0.375000 1.000000
vt 0.375000 0.936577
vt 0.375000 0.750000
vt 0.625000 0.813423
vt 0.375000 0.813423
vt 0.625000 0.186577
vt 0.625000 0.250000
vt 0.375000 0.250000
vt 0.375000 0.186577
vt 0.375000 0.000000
vt 0.625000 0.000000
vt 0.625000 0.063423
vt 0.375000 0.063423
vt 0.311577 0.750000
vt 0.311577 0.693621
vt 0.188423 0.693621
vt 0.188423 0.750000
vt 0.125000 0.750000
vt 0.125000 0.686577
vt 0.181379 0.686577
vt 0.181379 0.563423
vt 0.125000 0.563423
vt 0.125000 0.500000
vt 0.188423 0.500000
vt 0.188423 0.556379
vt 0.311577 0.556379
vt 0.311577 0.500000
vt 0.375000 0.500000
vt 0.375000 0.563423
vt 0.318621 0.563423
vt 0.318621 0.686577
vt 0.375000 0.686577
vt 0.625000 0.436577
vt 0.375000 0.436577
vt 0.625000 0.313423
vt 0.375000 0.313423
vt 0.375000 0.193621
vt 0.375000 0.250000
vt 0.625000 0.250000
vt 0.625000 0.193621
vt 0.625000 0.500000
vt 0.375000 0.500000
vt 0.375000 0.556379
vt 0.625000 0.556379
vt 0.625000 0.000000
vt 0.375000 0.250000
vt 0.375000 0.250000
vt 0.625000 0.000000
vt 0.625000 0.500000
vt 0.375000 0.750000
vt 0.375000 0.750000
vt 0.625000 0.500000
vt 0.625000 0.250000
vt 0.625000 0.250000
vt 0.375000 0.500000
vt 0.375000 0.500000
vt 0.625000 0.193621
vt 0.375000 0.193621
vt 0.375000 0.250000
vt 0.625000 0.250000
vt 0.625000 0.556379
vt 0.625000 0.500000
vt 0.375000 0.500000
vt 0.375000 0.556379
vt 0.625000 0.000000
vt 0.375000 0.250000
vt 0.375000 0.250000
vt 0.625000 0.000000
vt 0.625000 0.500000
vt 0.625000 0.500000
vt 0.375000 0.750000
vt 0.375000 0.750000
vt 0.375000 0.500000
vt 0.625000 0.250000
vt 0.625000 0.250000
vt 0.375000 0.500000
vt 0.811577 0.556379
vt 0.811577 0.500000
vt 0.875000 0.500000
vt 0.875000 0.563423
vt 0.818621 0.563423
vt 0.818621 0.686577
vt 0.875000 0.686577
vt 0.875000 0.750000
vt 0.811577 0.750000
vt 0.811577 0.693621
vt 0.688423 0.693621
vt 0.688423 0.750000
vt 0.625000 0.750000
vt 0.625000 0.686577
vt 0.681379 0.686577
vt 0.681379 0.563423
vt 0.625000 0.563423
vt 0.625000 0.500000
vt 0.688423 0.500000
vt 0.688423 0.556379
vt 0.625000 0.936577
vt 0.625000 1.000000
vt 0.375000 1.000000
vt 0.375000 0.936577
vt 0.375000 0.750000
vt 0.625000 0.813423
vt 0.375000 0.813423
vt 0.625000 0.186577
vt 0.625000 0.250000
vt 0.375000 0.250000
vt 0.375000 0.186577
vt 0.375000 0.000000
vt 0.625000 0.000000
vt 0.625000 0.063423
vt 0.375000 0.063423
vt 0.311577 0.750000
vt 0.311577 0.693621
vt 0.188423 0.693621
vt 0.188423 0.750000
vt 0.125000 0.750000
vt 0.125000 0.686577
vt 0.181379 0.686577
vt 0.181379 0.563423
vt 0.125000 0.563423
vt 0.125000 0.500000
vt 0.188423 0.500000
vt 0.188423 0.556379
vt 0.311577 0.556379
vt 0.311577 0.500000
vt 0.375000 0.500000
vt 0.375000 0.563423
vt 0.318621 0.563423
vt 0.318621 0.686577
vt 0.375000 0.686577
vt 0.625000 0.436577
vt 0.375000 0.436577
vt 0.625000 0.313423
vt 0.375000 0.313423
vt 0.375000 0.193621
vt 0.375000 0.250000
vt 0.625000 0.250000
vt 0.625000 0.193621
vt 0.625000 0.500000
vt 0.375000 0.500000
vt 0.375000 0.556379
vt 0.625000 0.556379
vt 0.625000 0.000000
vt 0.375000 0.250000
vt 0.375000 0.250000
vt 0.625000 0.000000
vt 0.625000 0.500000
vt 0.375000 0.750000
vt 0.375000 0.750000
vt 0.625000 0.500000
vt 0.625000 0.250000
vt 0.625000 0.250000
vt 0.375000 0.500000
vt 0.375000 0.500000
vt 0.625000 0.193621
vt 0.375000 0.193621
vt 0.375000 0.250000
vt 0.625000 0.250000
vt 0.625000 0.556379
vt 0.625000 0.500000
vt 0.375000 0.500000
vt 0.375000 0.556379
vt 0.625000 0.000000
vt 0.375000 0.250000
vt 0.375000 0.250000
vt 0.625000 0.000000
vt 0.625000 0.500000
vt 0.625000 0.500000
vt 0.375000 0.750000
vt 0.375000 0.750000
vt 0.375000 0.500000
vt 0.625000 0.250000
vt 0.625000 0.250000
vt 0.375000 0.500000
vt 0.811577 0.556379
vt 0.811577 0.500000
vt 0.875000 0.500000
vt 0.875000 0.563423
vt 0.818621 0.563423
vt 0.818621 0.686577
vt 0.875000 0.686577
vt 0.875000 0.750000
vt 0.811577 0.750000
vt 0.811577 0.693621
vt 0.688423 0.693621
vt 0.688423 0.750000
vt 0.625000 0.750000
vt 0.625000 0.686577
vt 0.681379 0.686577
vt 0.681379 0.563423
vt 0.625000 0.563423
vt 0.625000 0.500000
vt 0.688423 0.500000
vt 0.688423 0.556379
vt 0.625000 0.936577
vt 0.625000 1.000000
vt 0.375000 1.000000
vt 0.375000 0.936577
vt 0.375000 0.750000
vt 0.625000 0.813423
vt 0.375000 0.813423
vt 0.625000 0.186577
vt 0.625000 0.250000
vt 0.375000 0.250000
vt 0.375000 0.186577
vt 0.375000 0.000000
vt 0.625000 0.000000
vt 0.625000 0.063423
vt 0.375000 0.063423
vt 0.311577 0.750000
vt 0.311577 0.693621
vt 0.188423 0.693621
vt 0.188423 0.750000
vt 0.125000 0.750000
vt 0.125000 0.686577
vt 0.181379 0.686577
vt 0.181379 0.563423
vt 0.125000 0.563423
vt 0.125000 0.500000
vt 0.188423 0.500000
vt 0.188423 0.556379
vt 0.311577 0.556379
vt 0.311577 0.500000
vt 0.375000 0.500000
vt 0.375000 0.563423
vt 0.318621 0.563423
vt 0.318621 0.686577
vt 0.375000 0.686577
vt 0.625000 0.436577
vt 0.375000 0.436577
vt 0.625000 0.313423
vt 0.375000 0.313423
vt 0.375000 0.193621
vt 0.375000 0.250000
vt 0.625000 0.250000
vt 0.625000 0.193621
vt 0.625000 0.500000
vt 0.375000 0.500000
vt 0.375000 0.556379
vt 0.625000 0.556379
vt 0.625000 0.000000
vt 0.375000 0.250000
vt 0.375000 0.250000
vt 0.625000 0.000000
vt 0.625000 0.500000
vt 0.375000 0.750000
vt 0.375000 0.750000
vt 0.625000 0.500000
vt 0.625000 0.250000
vt 0.625000 0.250000
vt 0.375000 0.500000
vt 0.375000 0.500000
vt 0.625000 0.193621
vt 0.375000 0.193621
vt 0.375000 0.250000
vt 0.625000 0.250000
vt 0.625000 0.556379
vt 0.625000 0.500000
vt 0.375000 0.500000
vt 0.375000 0.556379
vt 0.625000 0.000000
vt 0.375000 0.250000
vt 0.375000 0.250000
vt 0.625000 0.000000
vt 0.625000 0.500000
vt 0.625000 0.500000
vt 0.375000 0.750000
vt 0.375000 0.750000
vt 0.375000 0.500000
vt 0.625000 0.250000
vt 0.625000 0.250000
vt 0.375000 0.500000
vt 0.811577 0.556379
vt 0.811577 0.500000
vt 0.875000 0.500000
vt 0.875000 0.563423
vt 0.818621 0.563423
vt 0.818621 0.686577
vt 0.875000 0.686577
vt 0.875000 0.750000
vt 0.811577 0.750000
vt 0.811577 0.693621
vt 0.688423 0.693621
vt 0.688423 0.750000
vt 0.625000 0.750000
vt 0.625000 0.686577
vt 0.681379 0.686577
vt 0.681379 0.563423
vt 0.625000 0.563423
vt 0.625000 0.500000
vt 0.688423 0.500000
vt 0.688423 0.556379
vt 0.625000 0.936577
vt 0.625000 1.000000
vt 0.375000 1.000000
vt 0.375000 0.936577
vt 0.375000 0.750000
vt 0.625000 0.813423
vt 0.375000 0.813423
vt 0.625000 0.186577
vt 0.625000 0.250000
vt 0.375000 0.250000
vt 0.375000 0.186577
vt 0.375000 0.000000
vt 0.625000 0.000000
vt 0.625000 0.063423
vt 0.375000 0.063423
vt 0.311577 0.750000
vt 0.311577 0.693621
vt 0.188423 0.693621
vt 0.188423 0.750000
vt 0.125000 0.750000
vt 0.125000 0.686577
vt 0.181379 0.686577
vt 0.181379 0.563423
vt 0.125000 0.563423
vt 0.125000 0.500000
vt 0.188423 0.500000
vt 0.188423 0.556379
vt 0.311577 0.556379
vt 0.311577 0.500000
vt 0.375000 0.500000
vt 0.375000 0.563423
vt 0.318621 0.563423
vt 0.318621 0.686577
vt 0.375000 0.686577
vt 0.625000 0.436577
vt 0.375000 0.436577
vt 0.625000 0.313423
vt 0.375000 0.313423
vt 0.375000 0.193621
vt 0.375000 0.250000
vt 0.625000 0.250000
vt 0.625000 0.193621
vt 0.625000 0.500000
vt 0.375000 0.500000
vt 0.375000 0.556379
vt 0.625000 0.556379
vt 0.625000 0.000000
vt 0.375000 0.250000
vt 0.375000 0.250000
vt 0.625000 0.000000
vt 0.625000 0.500000
vt 0.375000 0.750000
vt 0.375000 0.750000
vt 0.625000 0.500000
vt 0.625000 0.250000
vt 0.625000 0.250000
vt 0.375000 0.500000
vt 0.375000 0.500000
vt 0.625000 0.193621
vt 0.375000 0.193621
vt 0.375000 0.250000
vt 0.625000 0.250000
vt 0.625000 0.556379
vt 0.625000 0.500000
vt 0.375000 0.500000
vt 0.375000 0.556379
vt 0.625000 0.000000
vt 0.375000 0.250000
vt 0.375000 0.250000
vt 0.625000 0.000000
vt 0.625000 0.500000
vt 0.625000 0.500000
vt 0.375000 0.750000
vt 0.375000 0.750000
vt 0.375000 0.500000
vt 0.625000 0.250000
vt 0.625000 0.250000
vt 0.375000 0.500000
vt 0.811577 0.556379
vt 0.811577 0.500000
vt 0.875000 0.500000
vt 0.875000 0.563423
vt 0.818621 0.563423
vt 0.818621 0.686577
vt 0.875000 0.686577
vt 0.875000 0.750000
vt 0.811577 0.750000
vt 0.811577 0.693621
vt 0.688423 0.693621
vt 0.688423 0.750000
vt 0.625000 0.750000
vt 0.625000 0.686577
vt 0.681379 0.686577
vt 0.681379 0.563423
vt 0.625000 0.563423
vt 0.625000 0.500000
vt 0.688423 0.500000
vt 0.688423 0.556379
vt 0.625000 0.936577
vt 0.625000 1.000000
vt 0.375000 1.000000
vt 0.375000 0.936577
vt 0.375000 0.750000
vt 0.625000 0.813423
vt 0.375000 0.813423
vt 0.625000 0.186577
vt 0.625000 0.250000
vt 0.375000 0.250000
vt 0.375000 0.186577
vt 0.375000 0.000000
vt 0.625000 0.000000
vt 0.625000 0.063423
vt 0.375000 0.063423
vt 0.311577 0.750000
vt 0.311577 0.693621
vt 0.188423 0.693621
vt 0.188423 0.750000
vt 0.125000 0.750000
vt 0.125000 0.686577
vt 0.181379 0.686577
vt 0.181379 0.563423
vt 0.125000 0.563423
vt 0.125000 0.500000
vt 0.188423 0.500000
vt 0.188423 0.556379
vt 0.311577 0.556379
vt 0.311577 0.500000
vt 0.375000 0.500000
vt 0.375000 0.563423
vt 0.318621 0.563423
vt 0.318621 0.686577
vt 0.375000 0.686577
vt 0.625000 0.436577
vt 0.375000 0.436577
vt 0.625000 0.313423
vt 0.375000 0.313423
vt 0.375000 0.193621
vt 0.375000 0.250000
vt 0.625000 0.250000
vt 0.625000 0.193621
vt 0.625000 0.500000
vt 0.375000 0.500000
vt 0.375000 0.556379
vt 0.625000 0.556379
vt 0.625000 0.000000
vt 0.375000 0.250000
vt 0.375000 0.250000
vt 0.625000 0.000000
vt 0.625000 0.500000
vt 0.375000 0.750000
vt 0.375000 0.750000
vt 0.625000 0.500000
vt 0.625000 0.250000
vt 0.625000 0.250000
vt 0.375000 0.500000
vt 0.375000 0.500000
vt 0.625000 0.193621
vt 0.375000 0.193621
vt 0.375000 0.250000
vt 0.625000 0.250000
vt 0.625000 0.556379
vt 0.625000 0.500000
vt 0.375000 0.500000
vt 0.375000 0.556379
vt 0.625000 0.000000
vt 0.375000 0.250000
vt 0.375000 0.250000
vt 0.625000 0.000000
vt 0.625000 0.500000
vt 0.625000 0.500000
vt 0.375000 0.750000
vt 0.375000 0.750000
vt 0.375000 0.500000
vt 0.625000 0.250000
vt 0.625000 0.250000
vt 0.375000 0.500000
vt 0.811577 0.556379
vt 0.811577 0.500000
vt 0.875000 0.500000
vt 0.875000 0.563423
vt 0.818621 0.563423
vt 0.818621 0.686577
vt 0.875000 0.686577
vt 0.875000 0.750000
vt 0.811577 0.750000
vt 0.811577 0.693621
vt 0.688423 0.693621
vt 0.688423 0.750000
vt 0.625000 0.750000
vt 0.625000 0.686577
vt 0.681379 0.686577
vt 0.681379 0.563423
vt 0.625000 0.563423
vt 0.625000 0.500000
vt 0.688423 0.500000
vt 0.688423 0.556379
vt 0.625000 0.936577
vt 0.625000 1.000000
vt 0.375000 1.000000
vt 0.375000 0.936577
vt 0.375000 0.750000
vt 0.625000 0.813423
vt 0.375000 0.813423
vt 0.625000 0.186577
vt 0.625000 0.250000
vt 0.375000 0.250000
vt 0.375000 0.186577
vt 0.375000 0.000000
vt 0.625000 0.000000
vt 0.625000 0.063423
vt 0.375000 0.063423
vt 0.311577 0.750000
vt 0.311577 0.693621
vt 0.188423 0.693621
vt 0.188423 0.750000
vt 0.125000 0.750000
vt 0.125000 0.686577
vt 0.181379 0.686577
vt 0.181379 0.563423
vt 0.125000 0.563423
vt 0.125000 0.500000
vt 0.188423 0.500000
vt 0.188423 0.556379
vt 0.311577 0.556379
vt 0.311577 0.500000
vt 0.375000 0.500000
vt 0.375000 0.563423
vt 0.318621 0.563423
vt 0.318621 0.686577
vt 0.375000 0.686577
vt 0.625000 0.436577
vt 0.375000 0.436577
vt 0.625000 0.313423
vt 0.375000 0.313423
vt 0.375000 0.193621
vt 0.375000 0.250000
vt 0.625000 0.250000
vt 0.625000 0.193621
vt 0.625000 0.500000
vt 0.375000 0.500000
vt 0.375000 0.556379
vt 0.625000 0.556379
vt 0.625000 0.000000
vt 0.375000 0.250000
vt 0.375000 0.250000
vt 0.625000 0.000000
vt 0.625000 0.500000
vt 0.375000 0.750000
vt 0.375000 0.750000
vt 0.625000 0.500000
vt 0.625000 0.250000
vt 0.625000 0.250000
vt 0.375000 0.500000
vt 0.375000 0.500000
vt 0.625000 0.193621
vt 0.375000 0.193621
vt 0.375000 0.250000
vt 0.625000 0.250000
vt 0.625000 0.556379
vt 0.625000 0.500000
vt 0.375000 0.500000
vt 0.375000 0.556379
vt 0.625000 0.000000
vt 0.375000 0.250000
vt 0.375000 0.250000
vt 0.625000 0.000000
vt 0.625000 0.500000
vt 0.625000 0.500000
vt 0.375000 0.750000
vt 0.375000 0.750000
vt 0.375000 0.500000
vt 0.625000 0.250000
vt 0.625000 0.250000
vt 0.375000 0.500000
vt 0.811577 0.556379
vt 0.811577 0.500000
vt 0.875000 0.500000
vt 0.875000 0.563423
vt 0.818621 0.563423
vt 0.818621 0.686577
vt 0.875000 0.686577
vt 0.875000 0.750000
vt 0.811577 0.750000
vt 0.811577 0.693621
vt 0.688423 0.693621
vt 0.688423 0.750000
vt 0.625000 0.750000
vt 0.625000 0.686577
vt 0.681379 0.686577
vt 0.681379 0.563423
vt 0.625000 0.563423
vt 0.625000 0.500000
vt 0.688423 0.500000
vt 0.688423 0.556379
vt 0.625000 0.936577
vt 0.625000 1.000000
vt 0.375000 1.000000
vt 0.375000 0.936577
vt 0.375000 0.750000
vt 0.625000 0.813423
vt 0.375000 0.813423
vt 0.625000 0.186577
vt 0.625000 0.250000
vt 0.375000 0.250000
vt 0.375000 0.186577
vt 0.375000 0.000000
vt 0.625000 0.000000
vt 0.625000 0.063423
vt 0.375000 0.063423
vt 0.311577 0.750000
vt 0.311577 0.693621
vt 0.188423 0.693621
vt 0.188423 0.750000
vt 0.125000 0.750000
vt 0.125000 0.686577
vt 0.181379 0.686577
vt 0.181379 0.563423
vt 0.125000 0.563423
vt 0.125000 0.500000
vt 0.188423 0.500000
vt 0.188423 0.556379
vt 0.311577 0.556379
vt 0.311577 0.500000
vt 0.375000 0.500000
vt 0.375000 0.563423
vt 0.318621 0.563423
vt 0.318621 0.686577
vt 0.375000 0.686577
vt 0.625000 0.436577
vt 0.375000 0.436577
vt 0.625000 0.313423
vt 0.375000 0.313423
vt 0.375000 0.193621
vt 0.375000 0.250000
vt 0.625000 0.250000
vt 0.625000 0.193621
vt 0.625000 0.500000
vt 0.375000 0.500000
vt 0.375000 0.556379
vt 0.625000 0.556379
vt 0.625000 0.000000
vt 0.375000 0.250000
vt 0.375000 0.250000
vt 0.625000 0.000000
vt 0.625000 0.500000
vt 0.375000 0.750000
vt 0.375000 0.750000
vt 0.625000 0.500000
vt 0.625000 0.250000
vt 0.625000 0.250000
vt 0.375000 0.500000
vt 0.375000 0.500000
vt 0.625000 0.193621
vt 0.375000 0.193621
vt 0.375000 0.250000
vt 0.625000 0.250000
vt 0.625000 0.556379
vt 0.625000 0.500000
vt 0.375000 0.500000
vt 0.375000 0.556379
vt 0.625000 0.000000
vt 0.375000 0.250000
vt 0.375000 0.250000
vt 0.625000 0.000000
vt 0.625000 0.500000
vt 0.625000 0.500000
vt 0.375000 0.750000
vt 0.375000 0.750000
vt 0.375000 0.500000
vt 0.625000 0.250000
vt 0.625000 0.250000
vt 0.375000 0.500000
vn 1.0000 0.0000 0.0000
vn 0.0000 0.0000 1.0000
vn 0.0000 1.0000 0.0000
vn -1.0000 0.0000 0.0000
vn -0.0000 -1.0000 0.0000
vn 0.0000 0.0000 -1.0000
usemtl Material
s off
f 25/1/1 29/2/1 5/3/1 22/4/1 19/5/1 17/6/1 21/7/1 7/8/1 13/9/1 11/10/1 9/11/1 14/12/1 3/13/1 37/14/1 35/15/1 33/16/1 38/17/1 1/18/1 30/19/1 27/20/1
f 13/21/2 7/22/2 8/23/2 15/24/2
f 4/25/2 3/13/2 14/26/2 16/27/2
f 22/28/3 5/29/3 6/30/3 24/31/3
f 8/32/3 7/33/3 21/34/3 23/35/3
f 4/25/4 16/36/4 10/37/4 12/38/4 15/39/4 8/40/4 23/41/4 18/42/4 20/43/4 24/44/4 6/45/4 31/46/4 26/47/4 28/48/4 32/49/4 2/50/4 40/51/4 34/52/4 36/53/4 39/54/4
f 37/14/5 3/13/5 4/25/5 39/54/5
f 2/50/5 1/18/5 38/17/5 40/51/5
f 30/55/6 1/18/6 2/50/6 32/56/6
f 6/30/6 5/29/6 29/57/6 31/58/6
f 15/59/5 12/60/5 11/61/5 13/62/5
f 9/63/3 10/64/3 16/65/3 14/66/3
f 12/60/2 10/64/2 9/63/2 11/61/2
f 22/67/2 24/68/2 20/69/2 19/70/2
f 17/71/6 18/72/6 23/73/6 21/74/6
f 17/75/3 19/76/3 20/77/3 18/78/3
f 30/79/3 32/80/3 28/81/3 27/82/3
f 29/83/5 25/84/5 26/85/5 31/86/5
f 25/84/6 27/82/6 28/81/6 26/85/6
f 37/87/6 39/88/6 36/89/6 35/90/6
f 38/91/2 33/92/2 34/93/2 40/94/2
f 34/95/5 33/96/5 35/97/5 36/98/5
usemtl Material.003
f 65/99/3 69/100/3 45/101/3 62/102/3 59/103/3 57/104/3 61/105/3 47/106/3 53/107/3 51/108/3 49/109/3 54/110/3 43/111/3 77/112/3 75/113/3 73/114/3 78/115/3 41/116/3 70/117/3 67/118/3
f 53/119/2 47/120/2 48/121/2 55/122/2
f 44/123/2 43/111/2 54/124/2 56/125/2
f 62/126/4 45/127/4 46/128/4 64/129/4
f 48/130/4 47/131/4 61/132/4 63/133/4
f 44/123/5 56/134/5 50/135/5 52/136/5 55/137/5 48/138/5 63/139/5 58/140/5 60/141/5 64/142/5 46/143/5 71/144/5 66/145/5 68/146/5 72/147/5 42/148/5 80/149/5 74/150/5 76/151/5 79/152/5
f 77/112/1 43/111/1 44/123/1 79/152/1
f 42/148/1 41/116/1 78/115/1 80/149/1
f 70/153/6 41/116/6 42/148/6 72/154/6
f 46/128/6 45/127/6 69/155/6 71/156/6
f 55/157/1 52/158/1 51/159/1 53/160/1
f 49/161/4 50/162/4 56/163/4 54/164/4
f 52/158/2 50/162/2 49/161/2 51/159/2
f 62/165/2 64/166/2 60/167/2 59/168/2
f 57/169/6 58/170/6 63/171/6 61/172/6
f 57/173/4 59/174/4 60/175/4 58/176/4
f 70/177/4 72/178/4 68/179/4 67/180/4
f 69/181/1 65/182/1 66/183/1 71/184/1
f 65/182/6 67/180/6 68/179/6 66/183/6
f 77/185/6 79/186/6 76/187/6 75/188/6
f 78/189/2 73/190/2 74/191/2 80/192/2
f 74/193/1 73/194/1 75/195/1 76/196/1
usemtl Material.004
f 105/197/1 109/198/1 85/199/1 102/200/1 99/201/1 97/202/1 101/203/1 87/204/1 93/205/1 91/206/1 89/207/1 94/208/1 83/209/1 117/210/1 115/211/1 113/212/1 118/213/1 81/214/1 110/215/1 107/216/1
f 93/217/2 87/218/2 88/219/2 95/220/2
f 84/221/2 83/209/2 94/222/2 96/223/2
f 102/224/3 85/225/3 86/226/3 104/227/3
f 88/228/3 87/229/3 101/230/3 103/231/3
f 84/221/4 96/232/4 90/233/4 92/234/4 95/235/4 88/236/4 103/237/4 98/238/4 100/239/4 104/240/4 86/241/4 111/242/4 106/243/4 108/244/4 112/245/4 82/246/4 120/247/4 114/248/4 116/249/4 119/250/4
f 117/210/5 83/209/5 84/221/5 119/250/5
f 82/246/5 81/214/5 118/213/5 120/247/5
f 110/251/6 81/214/6 82/246/6 112/252/6
f 86/226/6 85/225/6 109/253/6 111/254/6
f 95/255/5 92/256/5 91/257/5 93/258/5
f 89/259/3 90/260/3 96/261/3 94/262/3
f 92/256/2 90/260/2 89/259/2 91/257/2
f 102/263/2 104/264/2 100/265/2 99/266/2
f 97/267/6 98/268/6 103/269/6 101/270/6
f 97/271/3 99/272/3 100/273/3 98/274/3
f 110/275/3 112/276/3 108/277/3 107/278/3
f 109/279/5 105/280/5 106/281/5 111/282/5
f 105/280/6 107/278/6 108/277/6 106/281/6
f 117/283/6 119/284/6 116/285/6 115/286/6
f 118/287/2 113/288/2 114/289/2 120/290/2
f 114/291/5 113/292/5 115/293/5 116/294/5
usemtl Material.005
f 145/295/3 149/296/3 125/297/3 142/298/3 139/299/3 137/300/3 141/301/3 127/302/3 133/303/3 131/304/3 129/305/3 134/306/3 123/307/3 157/308/3 155/309/3 153/310/3 158/311/3 121/312/3 150/313/3 147/314/3
f 133/315/2 127/316/2 128/317/2 135/318/2
f 124/319/2 123/307/2 134/320/2 136/321/2
f 142/322/4 125/323/4 126/324/4 144/325/4
f 128/326/4 127/327/4 141/328/4 143/329/4
f 124/319/5 136/330/5 130/331/5 132/332/5 135/333/5 128/334/5 143/335/5 138/336/5 140/337/5 144/338/5 126/339/5 151/340/5 146/341/5 148/342/5 152/343/5 122/344/5 160/345/5 154/346/5 156/347/5 159/348/5
f 157/308/1 123/307/1 124/319/1 159/348/1
f 122/344/1 121/312/1 158/311/1 160/345/1
f 150/349/6 121/312/6 122/344/6 152/350/6
f 126/324/6 125/323/6 149/351/6 151/352/6
f 135/353/1 132/354/1 131/355/1 133/356/1
f 129/357/4 130/358/4 136/359/4 134/360/4
f 132/354/2 130/358/2 129/357/2 131/355/2
f 142/361/2 144/362/2 140/363/2 139/364/2
f 137/365/6 138/366/6 143/367/6 141/368/6
f 137/369/4 139/370/4 140/371/4 138/372/4
f 150/373/4 152/374/4 148/375/4 147/376/4
f 149/377/1 145/378/1 146/379/1 151/380/1
f 145/378/6 147/376/6 148/375/6 146/379/6
f 157/381/6 159/382/6 156/383/6 155/384/6
f 158/385/2 153/386/2 154/387/2 160/388/2
f 154/389/1 153/390/1 155/391/1 156/392/1
usemtl Material.007
f 185/393/1 189/394/1 165/395/1 182/396/1 179/397/1 177/398/1 181/399/1 167/400/1 173/401/1 171/402/1 169/403/1 174/404/1 163/405/1 197/406/1 195/407/1 193/408/1 198/409/1 161/410/1 190/411/1 187/412/1
f 173/413/3 167/414/3 168/415/3 175/416/3
f 164/417/3 163/405/3 174/418/3 176/419/3
f 182/420/6 165/421/6 166/422/6 184/423/6
f 168/424/6 167/425/6 181/426/6 183/427/6
f 164/417/4 176/428/4 170/429/4 172/430/4 175/431/4 168/432/4 183/433/4 178/434/4 180/435/4 184/436/4 166/437/4 191/438/4 186/439/4 188/440/4 192/441/4 162/442/4 200/443/4 194/444/4 196/445/4 199/446/4
f 197/406/2 163/405/2 164/417/2 199/446/2
f 162/442/2 161/410/2 198/409/2 200/443/2
f 190/447/5 161/410/5 162/442/5 192/448/5
f 166/422/5 165/421/5 189/449/5 191/450/5
f 175/451/2 172/452/2 171/453/2 173/454/2
f 169/455/6 170/456/6 176/457/6 174/458/6
f 172/452/3 170/456/3 169/455/3 171/453/3
f 182/459/3 184/460/3 180/461/3 179/462/3
f 177/463/5 178/464/5 183/465/5 181/466/5
f 177/467/6 179/468/6 180/469/6 178/470/6
f 190/471/6 192/472/6 188/473/6 187/474/6
f 189/475/2 185/476/2 186/477/2 191/478/2
f 185/476/5 187/474/5 188/473/5 186/477/5
f 197/479/5 199/480/5 196/481/5 195/482/5
f 198/483/3 193/484/3 194/485/3 200/486/3
f 194/487/2 193/488/2 195/489/2 196/490/2
usemtl Material.008
f 225/491/6 229/492/6 205/493/6 222/494/6 219/495/6 217/496/6 221/497/6 207/498/6 213/499/6 211/500/6 209/501/6 214/502/6 203/503/6 237/504/6 235/505/6 233/506/6 238/507/6 201/508/6 230/509/6 227/510/6
f 213/511/3 207/512/3 208/513/3 215/514/3
f 204/515/3 203/503/3 214/516/3 216/517/3
f 222/518/4 205/519/4 206/520/4 224/521/4
f 208/522/4 207/523/4 221/524/4 223/525/4
f 204/515/2 216/526/2 210/527/2 212/528/2 215/529/2 208/530/2 223/531/2 218/532/2 220/533/2 224/534/2 206/535/2 231/536/2 226/537/2 228/538/2 232/539/2 202/540/2 240/541/2 234/542/2 236/543/2 239/544/2
f 237/504/1 203/503/1 204/515/1 239/544/1
f 202/540/1 201/508/1 238/507/1 240/541/1
f 230/545/5 201/508/5 202/540/5 232/546/5
f 206/520/5 205/519/5 229/547/5 231/548/5
f 215/549/1 212/550/1 211/551/1 213/552/1
f 209/553/4 210/554/4 216/555/4 214/556/4
f 212/550/3 210/554/3 209/553/3 211/551/3
f 222/557/3 224/558/3 220/559/3 219/560/3
f 217/561/5 218/562/5 223/563/5 221/564/5
f 217/565/4 219/566/4 220/567/4 218/568/4
f 230/569/4 232/570/4 228/571/4 227/572/4
f 229/573/1 225/574/1 226/575/1 231/576/1
f 225/574/5 227/572/5 228/571/5 226/575/5
f 237/577/5 239/578/5 236/579/5 235/580/5
f 238/581/3 233/582/3 234/583/3 240/584/3
f 234/585/1 233/586/1 235/587/1 236/588/1
usemtl Material.006
f 265/589/6 269/590/6 245/591/6 262/592/6 259/593/6 257/594/6 261/595/6 247/596/6 253/597/6 251/598/6 249/599/6 254/600/6 243/601/6 277/602/6 275/603/6 273/604/6 278/605/6 241/606/6 270/607/6 267/608/6
f 253/609/3 247/610/3 248/611/3 255/612/3
f 244/613/3 243/601/3 254/614/3 256/615/3
f 262/616/4 245/617/4 246/618/4 264/619/4
f 248/620/4 247/621/4 261/622/4 263/623/4
f 244/613/2 256/624/2 250/625/2 252/626/2 255/627/2 248/628/2 263/629/2 258/630/2 260/631/2 264/632/2 246/633/2 271/634/2 266/635/2 268/636/2 272/637/2 242/638/2 280/639/2 274/640/2 276/641/2 279/642/2
f 277/602/1 243/601/1 244/613/1 279/642/1
f 242/638/1 241/606/1 278/605/1 280/639/1
f 270/643/5 241/606/5 242/638/5 272/644/5
f 246/618/5 245/617/5 269/645/5 271/646/5
f 255/647/1 252/648/1 251/649/1 253/650/1
f 249/651/4 250/652/4 256/653/4 254/654/4
f 252/648/3 250/652/3 249/651/3 251/649/3
f 262/655/3 264/656/3 260/657/3 259/658/3
f 257/659/5 258/660/5 263/661/5 261/662/5
f 257/663/4 259/664/4 260/665/4 258/666/4
f 270/667/4 272/668/4 268/669/4 267/670/4
f 269/671/1 265/672/1 266/673/1 271/674/1
f 265/672/5 267/670/5 268/669/5 266/673/5
f 277/675/5 279/676/5 276/677/5 275/678/5
f 278/679/3 273/680/3 274/681/3 280/682/3
f 274/683/1 273/684/1 275/685/1 276/686/1
o Cube.001_Cube.009
v 0.250000 0.517325 -0.515012
v -0.250000 0.517325 -0.515012
v 0.250000 0.517569 -0.555012
v -0.250000 0.517569 -0.555012
v 0.250000 0.477326 -0.515256
v -0.250000 0.477326 -0.515256
v 0.250000 0.477570 -0.555255
v -0.250000 0.477569 -0.555255
v 0.250000 0.507366 -0.546053
v -0.250000 0.507366 -0.546053
v 0.250000 0.487662 -0.546173
v -0.250000 0.487662 -0.546173
v 0.250000 0.487717 -0.555194
v 0.250000 0.507421 -0.555073
v -0.250000 0.487717 -0.555194
v -0.250000 0.507421 -0.555073
v 0.250000 0.486528 -0.545053
v -0.250000 0.486528 -0.545053
v 0.250000 0.486408 -0.525349
v -0.250000 0.486408 -0.525349
v 0.250000 0.477508 -0.545108
v 0.250000 0.477388 -0.525404
v -0.250000 0.477508 -0.545108
v -0.250000 0.477388 -0.525404
v 0.250000 0.487528 -0.524215
v -0.250000 0.487528 -0.524215
v 0.250000 0.507233 -0.524095
v -0.250000 0.507233 -0.524095
v 0.250000 0.487473 -0.515194
v 0.250000 0.507178 -0.515074
v -0.250000 0.487473 -0.515194
v -0.250000 0.507178 -0.515074
v 0.250000 0.508367 -0.525215
v -0.250000 0.508366 -0.525215
v 0.250000 0.508487 -0.544919
v -0.250000 0.508487 -0.544919
v 0.250000 0.517507 -0.544864
v 0.250000 0.517387 -0.525160
v -0.250000 0.517507 -0.544864
v -0.250000 0.517387 -0.525160
v -0.050000 -0.020665 -0.518289
v -0.050000 0.479326 -0.515244
v -0.050000 -0.020421 -0.558289
v -0.050000 0.479570 -0.555243
v -0.090000 -0.020665 -0.518289
v -0.090000 0.479326 -0.515244
v -0.090000 -0.020421 -0.558289
v -0.090000 0.479570 -0.555243
v -0.060148 -0.020476 -0.549268
v -0.060148 0.479515 -0.546223
v -0.079852 -0.020476 -0.549268
v -0.079852 0.479515 -0.546223
v -0.079852 -0.020421 -0.558289
v -0.060148 -0.020421 -0.558289
v -0.079852 0.479570 -0.555243
v -0.060148 0.479570 -0.555243
v -0.080979 -0.020483 -0.548141
v -0.080979 0.479508 -0.545096
v -0.080979 -0.020603 -0.528437
v -0.080979 0.479388 -0.525391
v -0.090000 -0.020483 -0.548141
v -0.090000 -0.020603 -0.528437
v -0.090000 0.479508 -0.545096
v -0.090000 0.479388 -0.525391
v -0.079852 -0.020610 -0.527310
v -0.079852 0.479381 -0.524264
v -0.060148 -0.020610 -0.527310
v -0.060148 0.479381 -0.524264
v -0.079852 -0.020665 -0.518289
v -0.060148 -0.020665 -0.518289
v -0.079852 0.479326 -0.515244
v -0.060148 0.479326 -0.515244
v -0.059021 -0.020603 -0.528437
v -0.059021 0.479388 -0.525391
v -0.059021 -0.020483 -0.548141
v -0.059021 0.479508 -0.545096
v -0.050000 -0.020483 -0.548141
v -0.050000 -0.020603 -0.528437
v -0.050000 0.479508 -0.545096
v -0.050000 0.479388 -0.525391
v 0.050000 0.067333 -0.517753
v -0.050000 0.067333 -0.517753
v 0.050000 0.067577 -0.557753
v -0.050000 0.067577 -0.557753
v 0.050000 0.027334 -0.517997
v -0.050000 0.027334 -0.517997
v 0.050000 0.027578 -0.557996
v -0.050000 0.027578 -0.557996
v 0.050000 0.057375 -0.548794
v -0.050000 0.057375 -0.548794
v 0.050000 0.037670 -0.548914
v -0.050000 0.037670 -0.548914
v 0.050000 0.037725 -0.557935
v 0.050000 0.057430 -0.557814
v -0.050000 0.037725 -0.557935
v -0.050000 0.057430 -0.557814
v 0.050000 0.036537 -0.547794
v -0.050000 0.036537 -0.547794
v 0.050000 0.036416 -0.528090
v -0.050000 0.036416 -0.528090
v 0.050000 0.027516 -0.547849
v 0.050000 0.027396 -0.528145
v -0.050000 0.027516 -0.547849
v -0.050000 0.027396 -0.528145
v 0.050000 0.037537 -0.526956
v -0.050000 0.037537 -0.526956
v 0.050000 0.057241 -0.526836
v -0.050000 0.057241 -0.526836
v 0.050000 0.037482 -0.517935
v 0.050000 0.057186 -0.517815
v -0.050000 0.037482 -0.517935
v -0.050000 0.057186 -0.517815
v 0.050000 0.058375 -0.527956
v -0.050000 0.058375 -0.527956
v 0.050000 0.058495 -0.547660
v -0.050000 0.058495 -0.547660
v 0.050000 0.067515 -0.547605
v 0.050000 0.067395 -0.527901
v -0.050000 0.067515 -0.547605
v -0.050000 0.067395 -0.527901
v 0.090000 -0.020665 -0.518289
v 0.090000 0.479326 -0.515244
v 0.090000 -0.020421 -0.558289
v 0.090000 0.479570 -0.555243
v 0.050000 -0.020665 -0.518289
v 0.050000 0.479326 -0.515244
v 0.050000 -0.020421 -0.558289
v 0.050000 0.479570 -0.555243
v 0.079852 -0.020476 -0.549268
v 0.079852 0.479515 -0.546223
v 0.060148 -0.020476 -0.549268
v 0.060148 0.479515 -0.546223
v 0.060148 -0.020421 -0.558289
v 0.079852 -0.020421 -0.558289
v 0.060148 0.479570 -0.555243
v 0.079852 0.479570 -0.555243
v 0.059021 -0.020483 -0.548141
v 0.059021 0.479508 -0.545096
v 0.059021 -0.020603 -0.528437
v 0.059021 0.479388 -0.525391
v 0.050000 -0.020483 -0.548141
v 0.050000 -0.020603 -0.528437
v 0.050000 0.479508 -0.545096
v 0.050000 0.479388 -0.525391
v 0.060148 -0.020610 -0.527310
v 0.060148 0.479381 -0.524264
v 0.079852 -0.020610 -0.527310
v 0.079852 0.479381 -0.524264
v 0.060148 -0.020665 -0.518289
v 0.079852 -0.020665 -0.518289
v 0.060148 0.479326 -0.515244
v 0.079852 0.479326 -0.515244
v 0.080979 -0.020603 -0.528437
v 0.080979 0.479388 -0.525391
v 0.080979 -0.020483 -0.548141
v 0.080979 0.479508 -0.545096
v 0.090000 -0.020483 -0.548141
v 0.090000 -0.020603 -0.528437
v 0.090000 0.479508 -0.545096
v 0.090000 0.479388 -0.525391
v 0.049208 0.515584 -0.056740
v -0.050792 0.515584 -0.056740
v 0.049208 0.475585 -0.056984
v -0.050792 0.475585 -0.056984
v 0.049208 0.515340 -0.016741
v -0.050792 0.515340 -0.016741
v 0.049208 0.475341 -0.016984
v -0.050792 0.475341 -0.016984
v 0.049208 0.484543 -0.046781
v -0.050792 0.484543 -0.046781
v 0.049208 0.484423 -0.027077
v -0.050792 0.484423 -0.027077
v 0.049208 0.475403 -0.027132
v 0.049208 0.475523 -0.046836
v -0.050792 0.475403 -0.027132
v -0.050792 0.475523 -0.046836
v 0.049208 0.485543 -0.025943
v -0.050792 0.485543 -0.025943
v 0.049208 0.505248 -0.025823
v -0.050792 0.505248 -0.025823
v 0.049208 0.485489 -0.016923
v 0.049208 0.505193 -0.016803
v -0.050792 0.485489 -0.016923
v -0.050792 0.505193 -0.016803
v 0.049208 0.506382 -0.026943
v -0.050792 0.506382 -0.026943
v 0.049208 0.506502 -0.046648
v -0.050792 0.506502 -0.046647
v 0.049208 0.515402 -0.026888
v 0.049208 0.515522 -0.046593
v -0.050792 0.515402 -0.026888
v -0.050792 0.515522 -0.046593
v 0.049208 0.505381 -0.047781
v -0.050792 0.505381 -0.047781
v 0.049208 0.485677 -0.047901
v -0.050792 0.485677 -0.047901
v 0.049208 0.485732 -0.056922
v 0.049208 0.505436 -0.056802
v -0.050792 0.485732 -0.056922
v -0.050792 0.505436 -0.056802
v -0.050792 0.515339 -0.016521
v -0.050792 0.518384 -0.516512
v -0.050792 0.475340 -0.016765
v -0.050792 0.478385 -0.516756
v -0.090792 0.515339 -0.016521
v -0.090792 0.518384 -0.516512
v -0.090792 0.475340 -0.016765
v -0.090792 0.478385 -0.516756
v -0.060939 0.484360 -0.016710
v -0.060939 0.487406 -0.516701
v -0.080644 0.484360 -0.016710
v -0.080644 0.487406 -0.516701
v -0.080644 0.475340 -0.016765
v -0.060939 0.475340 -0.016765
v -0.080644 0.478385 -0.516756
v -0.060939 0.478385 -0.516756
v -0.081771 0.485487 -0.016703
v -0.081771 0.488533 -0.516694
v -0.081771 0.505191 -0.016583
v -0.081771 0.508237 -0.516574
v -0.090792 0.485487 -0.016703
v -0.090792 0.505191 -0.016583
v -0.090792 0.488533 -0.516694
v -0.090792 0.508237 -0.516574
v -0.080644 0.506319 -0.016576
v -0.080644 0.509364 -0.516567
v -0.060939 0.506319 -0.016576
v -0.060939 0.509364 -0.516567
v -0.080644 0.515339 -0.016521
v -0.060939 0.515339 -0.016521
v -0.080644 0.518384 -0.516512
v -0.060939 0.518384 -0.516512
v -0.059812 0.505191 -0.016583
v -0.059812 0.508237 -0.516574
v -0.059812 0.485487 -0.016703
v -0.059812 0.488533 -0.516694
v -0.050792 0.485487 -0.016703
v -0.050792 0.505191 -0.016583
v -0.050792 0.488533 -0.516694
v -0.050792 0.508237 -0.516574
v 0.089208 0.515339 -0.016521
v 0.089208 0.518384 -0.516512
v 0.089208 0.475340 -0.016765
v 0.089208 0.478385 -0.516756
v 0.049208 0.515339 -0.016521
v 0.049208 0.518384 -0.516512
v 0.049208 0.475340 -0.016765
v 0.049208 0.478385 -0.516756
v 0.079061 0.484360 -0.016710
v 0.079061 0.487406 -0.516701
v 0.059356 0.484360 -0.016710
v 0.059356 0.487406 -0.516701
v 0.059356 0.475340 -0.016765
v 0.079061 0.475340 -0.016765
v 0.059356 0.478385 -0.516756
v 0.079061 0.478385 -0.516756
v 0.058229 0.485487 -0.016703
v 0.058229 0.488533 -0.516694
v 0.058229 0.505191 -0.016583
v 0.058229 0.508237 -0.516574
v 0.049208 0.485487 -0.016703
v 0.049208 0.505191 -0.016583
v 0.049208 0.488533 -0.516694
v 0.049208 0.508237 -0.516574
v 0.059356 0.506319 -0.016576
v 0.059356 0.509364 -0.516567
v 0.079061 0.506319 -0.016576
v 0.079061 0.509364 -0.516567
v 0.059356 0.515339 -0.016521
v 0.079061 0.515339 -0.016521
v 0.059356 0.518384 -0.516512
v 0.079061 0.518384 -0.516512
v 0.080188 0.505191 -0.016583
v 0.080188 0.508237 -0.516574
v 0.080188 0.485487 -0.016703
v 0.080188 0.488533 -0.516694
v 0.089208 0.485487 -0.016703
v 0.089208 0.505191 -0.016583
v 0.089208 0.488533 -0.516694
v 0.089208 0.508237 -0.516574
vt 0.811577 0.556379
vt 0.811577 0.500000
vt 0.875000 0.500000
vt 0.875000 0.563423
vt 0.818621 0.563423
vt 0.818621 0.686577
vt 0.875000 0.686577
vt 0.875000 0.750000
vt 0.811577 0.750000
vt 0.811577 0.693621
vt 0.688423 0.693621
vt 0.688423 0.750000
vt 0.625000 0.750000
vt 0.625000 0.686577
vt 0.681379 0.686577
vt 0.681379 0.563423
vt 0.625000 0.563423
vt 0.625000 0.500000
vt 0.688423 0.500000
vt 0.688423 0.556379
vt 0.625000 0.936577
vt 0.625000 1.000000
vt 0.375000 1.000000
vt 0.375000 0.936577
vt 0.375000 0.750000
vt 0.625000 0.813423
vt 0.375000 0.813423
vt 0.625000 0.186577
vt 0.625000 0.250000
vt 0.375000 0.250000
vt 0.375000 0.186577
vt 0.375000 0.000000
vt 0.625000 0.000000
vt 0.625000 0.063423
vt 0.375000 0.063423
vt 0.311577 0.750000
vt 0.311577 0.693621
vt 0.188423 0.693621
vt 0.188423 0.750000
vt 0.125000 0.750000
vt 0.125000 0.686577
vt 0.181379 0.686577
vt 0.181379 0.563423
vt 0.125000 0.563423
vt 0.125000 0.500000
vt 0.188423 0.500000
vt 0.188423 0.556379
vt 0.311577 0.556379
vt 0.311577 0.500000
vt 0.375000 0.500000
vt 0.375000 0.563423
vt 0.318621 0.563423
vt 0.318621 0.686577
vt 0.375000 0.686577
vt 0.625000 0.436577
vt 0.375000 0.436577
vt 0.625000 0.313423
vt 0.375000 0.313423
vt 0.375000 0.193621
vt 0.375000 0.250000
vt 0.625000 0.250000
vt 0.625000 0.193621
vt 0.625000 0.500000
vt 0.375000 0.500000
vt 0.375000 0.556379
vt 0.625000 0.556379
vt 0.625000 0.000000
vt 0.375000 0.250000
vt 0.375000 0.250000
vt 0.625000 0.000000
vt 0.625000 0.500000
vt 0.375000 0.750000
vt 0.375000 0.750000
vt 0.625000 0.500000
vt 0.625000 0.250000
vt 0.625000 0.250000
vt 0.375000 0.500000
vt 0.375000 0.500000
vt 0.625000 0.193621
vt 0.375000 0.193621
vt 0.375000 0.250000
vt 0.625000 0.250000
vt 0.625000 0.556379
vt 0.625000 0.500000
vt 0.375000 0.500000
vt 0.375000 0.556379
vt 0.625000 0.000000
vt 0.375000 0.250000
vt 0.375000 0.250000
vt 0.625000 0.000000
vt 0.625000 0.500000
vt 0.625000 0.500000
vt 0.375000 0.750000
vt 0.375000 0.750000
vt 0.375000 0.500000
vt 0.625000 0.250000
vt 0.625000 0.250000
vt 0.375000 0.500000
vt 0.811577 0.556379
vt 0.811577 0.500000
vt 0.875000 0.500000
vt 0.875000 0.563423
vt 0.818621 0.563423
vt 0.818621 0.686577
vt 0.875000 0.686577
vt 0.875000 0.750000
vt 0.811577 0.750000
vt 0.811577 0.693621
vt 0.688423 0.693621
vt 0.688423 0.750000
vt 0.625000 0.750000
vt 0.625000 0.686577
vt 0.681379 0.686577
vt 0.681379 0.563423
vt 0.625000 0.563423
vt 0.625000 0.500000
vt 0.688423 0.500000
vt 0.688423 0.556379
vt 0.625000 0.936577
vt 0.625000 1.000000
vt 0.375000 1.000000
vt 0.375000 0.936577
vt 0.375000 0.750000
vt 0.625000 0.813423
vt 0.375000 0.813423
vt 0.625000 0.186577
vt 0.625000 0.250000
vt 0.375000 0.250000
vt 0.375000 0.186577
vt 0.375000 0.000000
vt 0.625000 0.000000
vt 0.625000 0.063423
vt 0.375000 0.063423
vt 0.311577 0.750000
vt 0.311577 0.693621
vt 0.188423 0.693621
vt 0.188423 0.750000
vt 0.125000 0.750000
vt 0.125000 0.686577
vt 0.181379 0.686577
vt 0.181379 0.563423
vt 0.125000 0.563423
vt 0.125000 0.500000
vt 0.188423 0.500000
vt 0.188423 0.556379
vt 0.311577 0.556379
vt 0.311577 0.500000
vt 0.375000 0.500000
vt 0.375000 0.563423
vt 0.318621 0.563423
vt 0.318621 0.686577
vt 0.375000 0.686577
vt 0.625000 0.436577
vt 0.375000 0.436577
vt 0.625000 0.313423
vt 0.375000 0.313423
vt 0.375000 0.193621
vt 0.375000 0.250000
vt 0.625000 0.250000
vt 0.625000 0.193621
vt 0.625000 0.500000
vt 0.375000 0.500000
vt 0.375000 0.556379
vt 0.625000 0.556379
vt 0.625000 0.000000
vt 0.375000 0.250000
vt 0.375000 0.250000
vt 0.625000 0.000000
vt 0.625000 0.500000
vt 0.375000 0.750000
vt 0.375000 0.750000
vt 0.625000 0.500000
vt 0.625000 0.250000
vt 0.625000 0.250000
vt 0.375000 0.500000
vt 0.375000 0.500000
vt 0.625000 0.193621
vt 0.375000 0.193621
vt 0.375000 0.250000
vt 0.625000 0.250000
vt 0.625000 0.556379
vt 0.625000 0.500000
vt 0.375000 0.500000
vt 0.375000 0.556379
vt 0.625000 0.000000
vt 0.375000 0.250000
vt 0.375000 0.250000
vt 0.625000 0.000000
vt 0.625000 0.500000
vt 0.625000 0.500000
vt 0.375000 0.750000
vt 0.375000 0.750000
vt 0.375000 0.500000
vt 0.625000 0.250000
vt 0.625000 0.250000
vt 0.375000 0.500000
vt 0.811577 0.556379
vt 0.811577 0.500000
vt 0.875000 0.500000
vt 0.875000 0.563423
vt 0.818621 0.563423
vt 0.818621 0.686577
vt 0.875000 0.686577
vt 0.875000 0.750000
vt 0.811577 0.750000
vt 0.811577 0.693621
vt 0.688423 0.693621
vt 0.688423 0.750000
vt 0.625000 0.750000
vt 0.625000 0.686577
vt 0.681379 0.686577
vt 0.681379 0.563423
vt 0.625000 0.563423
vt 0.625000 0.500000
vt 0.688423 0.500000
vt 0.688423 0.556379
vt 0.625000 0.936577
vt 0.625000 1.000000
vt 0.375000 1.000000
vt 0.375000 0.936577
vt 0.375000 0.750000
vt 0.625000 0.813423
vt 0.375000 0.813423
vt 0.625000 0.186577
vt 0.625000 0.250000
vt 0.375000 0.250000
vt 0.375000 0.186577
vt 0.375000 0.000000
vt 0.625000 0.000000
vt 0.625000 0.063423
vt 0.375000 0.063423
vt 0.311577 0.750000
vt 0.311577 0.693621
vt 0.188423 0.693621
vt 0.188423 0.750000
vt 0.125000 0.750000
vt 0.125000 0.686577
vt 0.181379 0.686577
vt 0.181379 0.563423
vt 0.125000 0.563423
vt 0.125000 0.500000
vt 0.188423 0.500000
vt 0.188423 0.556379
vt 0.311577 0.556379
vt 0.311577 0.500000
vt 0.375000 0.500000
vt 0.375000 0.563423
vt 0.318621 0.563423
vt 0.318621 0.686577
vt 0.375000 0.686577
vt 0.625000 0.436577
vt 0.375000 0.436577
vt 0.625000 0.313423
vt 0.375000 0.313423
vt 0.375000 0.193621
vt 0.375000 0.250000
vt 0.625000 0.250000
vt 0.625000 0.193621
vt 0.625000 0.500000
vt 0.375000 0.500000
vt 0.375000 0.556379
vt 0.625000 0.556379
vt 0.625000 0.000000
vt 0.375000 0.250000
vt 0.375000 0.250000
vt 0.625000 0.000000
vt 0.625000 0.500000
vt 0.375000 0.750000
vt 0.375000 0.750000
vt 0.625000 0.500000
vt 0.625000 0.250000
vt 0.625000 0.250000
vt 0.375000 0.500000
vt 0.375000 0.500000
vt 0.625000 0.193621
vt 0.375000 0.193621
vt 0.375000 0.250000
vt 0.625000 0.250000
vt 0.625000 0.556379
vt 0.625000 0.500000
vt 0.375000 0.500000
vt 0.375000 0.556379
vt 0.625000 0.000000
vt 0.375000 0.250000
vt 0.375000 0.250000
vt 0.625000 0.000000
vt 0.625000 0.500000
vt 0.625000 0.500000
vt 0.375000 0.750000
vt 0.375000 0.750000
vt 0.375000 0.500000
vt 0.625000 0.250000
vt 0.625000 0.250000
vt 0.375000 0.500000
vt 0.811577 0.556379
vt 0.811577 0.500000
vt 0.875000 0.500000
vt 0.875000 0.563423
vt 0.818621 0.563423
vt 0.818621 0.686577
vt 0.875000 0.686577
vt 0.875000 0.750000
vt 0.811577 0.750000
vt 0.811577 0.693621
vt 0.688423 0.693621
vt 0.688423 0.750000
vt 0.625000 0.750000
vt 0.625000 0.686577
vt 0.681379 0.686577
vt 0.681379 0.563423
vt 0.625000 0.563423
vt 0.625000 0.500000
vt 0.688423 0.500000
vt 0.688423 0.556379
vt 0.625000 0.936577
vt 0.625000 1.000000
vt 0.375000 1.000000
vt 0.375000 0.936577
vt 0.375000 0.750000
vt 0.625000 0.813423
vt 0.375000 0.813423
vt 0.625000 0.186577
vt 0.625000 0.250000
vt 0.375000 0.250000
vt 0.375000 0.186577
vt 0.375000 0.000000
vt 0.625000 0.000000
vt 0.625000 0.063423
vt 0.375000 0.063423
vt 0.311577 0.750000
vt 0.311577 0.693621
vt 0.188423 0.693621
vt 0.188423 0.750000
vt 0.125000 0.750000
vt 0.125000 0.686577
vt 0.181379 0.686577
vt 0.181379 0.563423
vt 0.125000 0.563423
vt 0.125000 0.500000
vt 0.188423 0.500000
vt 0.188423 0.556379
vt 0.311577 0.556379
vt 0.311577 0.500000
vt 0.375000 0.500000
vt 0.375000 0.563423
vt 0.318621 0.563423
vt 0.318621 0.686577
vt 0.375000 0.686577
vt 0.625000 0.436577
vt 0.375000 0.436577
vt 0.625000 0.313423
vt 0.375000 0.313423
vt 0.375000 0.193621
vt 0.375000 0.250000
vt 0.625000 0.250000
vt 0.625000 0.193621
vt 0.625000 0.500000
vt 0.375000 0.500000
vt 0.375000 0.556379
vt 0.625000 0.556379
vt 0.625000 0.000000
vt 0.375000 0.250000
vt 0.375000 0.250000
vt 0.625000 0.000000
vt 0.625000 0.500000
vt 0.375000 0.750000
vt 0.375000 0.750000
vt 0.625000 0.500000
vt 0.625000 0.250000
vt 0.625000 0.250000
vt 0.375000 0.500000
vt 0.375000 0.500000
vt 0.625000 0.193621
vt 0.375000 0.193621
vt 0.375000 0.250000
vt 0.625000 0.250000
vt 0.625000 0.556379
vt 0.625000 0.500000
vt 0.375000 0.500000
vt 0.375000 0.556379
vt 0.625000 0.000000
vt 0.375000 0.250000
vt 0.375000 0.250000
vt 0.625000 0.000000
vt 0.625000 0.500000
vt 0.625000 0.500000
vt 0.375000 0.750000
vt 0.375000 0.750000
vt 0.375000 0.500000
vt 0.625000 0.250000
vt 0.625000 0.250000
vt 0.375000 0.500000
vt 0.811577 0.556379
vt 0.811577 0.500000
vt 0.875000 0.500000
vt 0.875000 0.563423
vt 0.818621 0.563423
vt 0.818621 0.686577
vt 0.875000 0.686577
vt 0.875000 0.750000
vt 0.811577 0.750000
vt 0.811577 0.693621
vt 0.688423 0.693621
vt 0.688423 0.750000
vt 0.625000 0.750000
vt 0.625000 0.686577
vt 0.681379 0.686577
vt 0.681379 0.563423
vt 0.625000 0.563423
vt 0.625000 0.500000
vt 0.688423 0.500000
vt 0.688423 0.556379
vt 0.625000 0.936577
vt 0.625000 1.000000
vt 0.375000 1.000000
vt 0.375000 0.936577
vt 0.375000 0.750000
vt 0.625000 0.813423
vt 0.375000 0.813423
vt 0.625000 0.186577
vt 0.625000 0.250000
vt 0.375000 0.250000
vt 0.375000 0.186577
vt 0.375000 0.000000
vt 0.625000 0.000000
vt 0.625000 0.063423
vt 0.375000 0.063423
vt 0.311577 0.750000
vt 0.311577 0.693621
vt 0.188423 0.693621
vt 0.188423 0.750000
vt 0.125000 0.750000
vt 0.125000 0.686577
vt 0.181379 0.686577
vt 0.181379 0.563423
vt 0.125000 0.563423
vt 0.125000 0.500000
vt 0.188423 0.500000
vt 0.188423 0.556379
vt 0.311577 0.556379
vt 0.311577 0.500000
vt 0.375000 0.500000
vt 0.375000 0.563423
vt 0.318621 0.563423
vt 0.318621 0.686577
vt 0.375000 0.686577
vt 0.625000 0.436577
vt 0.375000 0.436577
vt 0.625000 0.313423
vt 0.375000 0.313423
vt 0.375000 0.193621
vt 0.375000 0.250000
vt 0.625000 0.250000
vt 0.625000 0.193621
vt 0.625000 0.500000
vt 0.375000 0.500000
vt 0.375000 0.556379
vt 0.625000 0.556379
vt 0.625000 0.000000
vt 0.375000 0.250000
vt 0.375000 0.250000
vt 0.625000 0.000000
vt 0.625000 0.500000
vt 0.375000 0.750000
vt 0.375000 0.750000
vt 0.625000 0.500000
vt 0.625000 0.250000
vt 0.625000 0.250000
vt 0.375000 0.500000
vt 0.375000 0.500000
vt 0.625000 0.193621
vt 0.375000 0.193621
vt 0.375000 0.250000
vt 0.625000 0.250000
vt 0.625000 0.556379
vt 0.625000 0.500000
vt 0.375000 0.500000
vt 0.375000 0.556379
vt 0.625000 0.000000
vt 0.375000 0.250000
vt 0.375000 0.250000
vt 0.625000 0.000000
vt 0.625000 0.500000
vt 0.625000 0.500000
vt 0.375000 0.750000
vt 0.375000 0.750000
vt 0.375000 0.500000
vt 0.625000 0.250000
vt 0.625000 0.250000
vt 0.375000 0.500000
vt 0.811577 0.556379
vt 0.811577 0.500000
vt 0.875000 0.500000
vt 0.875000 0.563423
vt 0.818621 0.563423
vt 0.818621 0.686577
vt 0.875000 0.686577
vt 0.875000 0.750000
vt 0.811577 0.750000
vt 0.811577 0.693621
vt 0.688423 0.693621
vt 0.688423 0.750000
vt 0.625000 0.750000
vt 0.625000 0.686577
vt 0.681379 0.686577
vt 0.681379 0.563423
vt 0.625000 0.563423
vt 0.625000 0.500000
vt 0.688423 0.500000
vt 0.688423 0.556379
vt 0.625000 0.936577
vt 0.625000 1.000000
vt 0.375000 1.000000
vt 0.375000 0.936577
vt 0.375000 0.750000
vt 0.625000 0.813423
vt 0.375000 0.813423
vt 0.625000 0.186577
vt 0.625000 0.250000
vt 0.375000 0.250000
vt 0.375000 0.186577
vt 0.375000 0.000000
vt 0.625000 0.000000
vt 0.625000 0.063423
vt 0.375000 0.063423
vt 0.311577 0.750000
vt 0.311577 0.693621
vt 0.188423 0.693621
vt 0.188423 0.750000
vt 0.125000 0.750000
vt 0.125000 0.686577
vt 0.181379 0.686577
vt 0.181379 0.563423
vt 0.125000 0.563423
vt 0.125000 0.500000
vt 0.188423 0.500000
vt 0.188423 0.556379
vt 0.311577 0.556379
vt 0.311577 0.500000
vt 0.375000 0.500000
vt 0.375000 0.563423
vt 0.318621 0.563423
vt 0.318621 0.686577
vt 0.375000 0.686577
vt 0.625000 0.436577
vt 0.375000 0.436577
vt 0.625000 0.313423
vt 0.375000 0.313423
vt 0.375000 0.193621
vt 0.375000 0.250000
vt 0.625000 0.250000
vt 0.625000 0.193621
vt 0.625000 0.500000
vt 0.375000 0.500000
vt 0.375000 0.556379
vt 0.625000 0.556379
vt 0.625000 0.000000
vt 0.375000 0.250000
vt 0.375000 0.250000
vt 0.625000 0.000000
vt 0.625000 0.500000
vt 0.375000 0.750000
vt 0.375000 0.750000
vt 0.625000 0.500000
vt 0.625000 0.250000
vt 0.625000 0.250000
vt 0.375000 0.500000
vt 0.375000 0.500000
vt 0.625000 0.193621
vt 0.375000 0.193621
vt 0.375000 0.250000
vt 0.625000 0.250000
vt 0.625000 0.556379
vt 0.625000 0.500000
vt 0.375000 0.500000
vt 0.375000 0.556379
vt 0.625000 0.000000
vt 0.375000 0.250000
vt 0.375000 0.250000
vt 0.625000 0.000000
vt 0.625000 0.500000
vt 0.625000 0.500000
vt 0.375000 0.750000
vt 0.375000 0.750000
vt 0.375000 0.500000
vt 0.625000 0.250000
vt 0.625000 0.250000
vt 0.375000 0.500000
vt 0.811577 0.556379
vt 0.811577 0.500000
vt 0.875000 0.500000
vt 0.875000 0.563423
vt 0.818621 0.563423
vt 0.818621 0.686577
vt 0.875000 0.686577
vt 0.875000 0.750000
vt 0.811577 0.750000
vt 0.811577 0.693621
vt 0.688423 0.693621
vt 0.688423 0.750000
vt 0.625000 0.750000
vt 0.625000 0.686577
vt 0.681379 0.686577
vt 0.681379 0.563423
vt 0.625000 0.563423
vt 0.625000 0.500000
vt 0.688423 0.500000
vt 0.688423 0.556379
vt 0.625000 0.936577
vt 0.625000 1.000000
vt 0.375000 1.000000
vt 0.375000 0.936577
vt 0.375000 0.750000
vt 0.625000 0.813423
vt 0.375000 0.813423
vt 0.625000 0.186577
vt 0.625000 0.250000
vt 0.375000 0.250000
vt 0.375000 0.186577
vt 0.375000 0.000000
vt 0.625000 0.000000
vt 0.625000 0.063423
vt 0.375000 0.063423
vt 0.311577 0.750000
vt 0.311577 0.693621
vt 0.188423 0.693621
vt 0.188423 0.750000
vt 0.125000 0.750000
vt 0.125000 0.686577
vt 0.181379 0.686577
vt 0.181379 0.563423
vt 0.125000 0.563423
vt 0.125000 0.500000
vt 0.188423 0.500000
vt 0.188423 0.556379
vt 0.311577 0.556379
vt 0.311577 0.500000
vt 0.375000 0.500000
vt 0.375000 0.563423
vt 0.318621 0.563423
vt 0.318621 0.686577
vt 0.375000 0.686577
vt 0.625000 0.436577
vt 0.375000 0.436577
vt 0.625000 0.313423
vt 0.375000 0.313423
vt 0.375000 0.193621
vt 0.375000 0.250000
vt 0.625000 0.250000
vt 0.625000 0.193621
vt 0.625000 0.500000
vt 0.375000 0.500000
vt 0.375000 0.556379
vt 0.625000 0.556379
vt 0.625000 0.000000
vt 0.375000 0.250000
vt 0.375000 0.250000
vt 0.625000 0.000000
vt 0.625000 0.500000
vt 0.375000 0.750000
vt 0.375000 0.750000
vt 0.625000 0.500000
vt 0.625000 0.250000
vt 0.625000 0.250000
vt 0.375000 0.500000
vt 0.375000 0.500000
vt 0.625000 0.193621
vt 0.375000 0.193621
vt 0.375000 0.250000
vt 0.625000 0.250000
vt 0.625000 0.556379
vt 0.625000 0.500000
vt 0.375000 0.500000
vt 0.375000 0.556379
vt 0.625000 0.000000
vt 0.375000 0.250000
vt 0.375000 0.250000
vt 0.625000 0.000000
vt 0.625000 0.500000
vt 0.625000 0.500000
vt 0.375000 0.750000
vt 0.375000 0.750000
vt 0.375000 0.500000
vt 0.625000 0.250000
vt 0.625000 0.250000
vt 0.375000 0.500000
vn 1.0000 0.0000 0.0000
vn 0.0000 0.0061 -1.0000
vn 0.0000 -1.0000 -0.0061
vn -1.0000 -0.0000 0.0000
vn 0.0000 1.0000 0.0061
vn 0.0000 -0.0061 1.0000
usemtl Material.015
s off
f 305/687/7 309/688/7 285/689/7 302/690/7 299/691/7 297/692/7 301/693/7 287/694/7 293/695/7 291/696/7 289/697/7 294/698/7 283/699/7 317/700/7 315/701/7 313/702/7 318/703/7 281/704/7 310/705/7 307/706/7
f 293/707/8 287/708/8 288/709/8 295/710/8
f 284/711/8 283/699/8 294/712/8 296/713/8
f 302/714/9 285/715/9 286/716/9 304/717/9
f 288/718/9 287/719/9 301/720/9 303/721/9
f 284/711/10 296/722/10 290/723/10 292/724/10 295/725/10 288/726/10 303/727/10 298/728/10 300/729/10 304/730/10 286/731/10 311/732/10 306/733/10 308/734/10 312/735/10 282/736/10 320/737/10 314/738/10 316/739/10 319/740/10
f 317/700/11 283/699/11 284/711/11 319/740/11
f 282/736/11 281/704/11 318/703/11 320/737/11
f 310/741/12 281/704/12 282/736/12 312/742/12
f 286/716/12 285/715/12 309/743/12 311/744/12
f 295/745/11 292/746/11 291/747/11 293/748/11
f 289/749/9 290/750/9 296/751/9 294/752/9
f 292/746/8 290/750/8 289/749/8 291/747/8
f 302/753/8 304/754/8 300/755/8 299/756/8
f 297/757/12 298/758/12 303/759/12 301/760/12
f 297/761/9 299/762/9 300/763/9 298/764/9
f 310/765/9 312/766/9 308/767/9 307/768/9
f 309/769/11 305/770/11 306/771/11 311/772/11
f 305/770/12 307/768/12 308/767/12 306/771/12
f 317/773/12 319/774/12 316/775/12 315/776/12
f 318/777/8 313/778/8 314/779/8 320/780/8
f 314/781/11 313/782/11 315/783/11 316/784/11
usemtl Material.014
f 345/785/9 349/786/9 325/787/9 342/788/9 339/789/9 337/790/9 341/791/9 327/792/9 333/793/9 331/794/9 329/795/9 334/796/9 323/797/9 357/798/9 355/799/9 353/800/9 358/801/9 321/802/9 350/803/9 347/804/9
f 333/805/8 327/806/8 328/807/8 335/808/8
f 324/809/8 323/797/8 334/810/8 336/811/8
f 342/812/10 325/813/10 326/814/10 344/815/10
f 328/816/10 327/817/10 341/818/10 343/819/10
f 324/809/11 336/820/11 330/821/11 332/822/11 335/823/11 328/824/11 343/825/11 338/826/11 340/827/11 344/828/11 326/829/11 351/830/11 346/831/11 348/832/11 352/833/11 322/834/11 360/835/11 354/836/11 356/837/11 359/838/11
f 357/798/7 323/797/7 324/809/7 359/838/7
f 322/834/7 321/802/7 358/801/7 360/835/7
f 350/839/12 321/802/12 322/834/12 352/840/12
f 326/814/12 325/813/12 349/841/12 351/842/12
f 335/843/7 332/844/7 331/845/7 333/846/7
f 329/847/10 330/848/10 336/849/10 334/850/10
f 332/844/8 330/848/8 329/847/8 331/845/8
f 342/851/8 344/852/8 340/853/8 339/854/8
f 337/855/12 338/856/12 343/857/12 341/858/12
f 337/859/10 339/860/10 340/861/10 338/862/10
f 350/863/10 352/864/10 348/865/10 347/866/10
f 349/867/7 345/868/7 346/869/7 351/870/7
f 345/868/12 347/866/12 348/865/12 346/869/12
f 357/871/12 359/872/12 356/873/12 355/874/12
f 358/875/8 353/876/8 354/877/8 360/878/8
f 354/879/7 353/880/7 355/881/7 356/882/7
usemtl Material.013
f 385/883/7 389/884/7 365/885/7 382/886/7 379/887/7 377/888/7 381/889/7 367/890/7 373/891/7 371/892/7 369/893/7 374/894/7 363/895/7 397/896/7 395/897/7 393/898/7 398/899/7 361/900/7 390/901/7 387/902/7
f 373/903/8 367/904/8 368/905/8 375/906/8
f 364/907/8 363/895/8 374/908/8 376/909/8
f 382/910/9 365/911/9 366/912/9 384/913/9
f 368/914/9 367/915/9 381/916/9 383/917/9
f 364/907/10 376/918/10 370/919/10 372/920/10 375/921/10 368/922/10 383/923/10 378/924/10 380/925/10 384/926/10 366/927/10 391/928/10 386/929/10 388/930/10 392/931/10 362/932/10 400/933/10 394/934/10 396/935/10 399/936/10
f 397/896/11 363/895/11 364/907/11 399/936/11
f 362/932/11 361/900/11 398/899/11 400/933/11
f 390/937/12 361/900/12 362/932/12 392/938/12
f 366/912/12 365/911/12 389/939/12 391/940/12
f 375/941/11 372/942/11 371/943/11 373/944/11
f 369/945/9 370/946/9 376/947/9 374/948/9
f 372/942/8 370/946/8 369/945/8 371/943/8
f 382/949/8 384/950/8 380/951/8 379/952/8
f 377/953/12 378/954/12 383/955/12 381/956/12
f 377/957/9 379/958/9 380/959/9 378/960/9
f 390/961/9 392/962/9 388/963/9 387/964/9
f 389/965/11 385/966/11 386/967/11 391/968/11
f 385/966/12 387/964/12 388/963/12 386/967/12
f 397/969/12 399/970/12 396/971/12 395/972/12
f 398/973/8 393/974/8 394/975/8 400/976/8
f 394/977/11 393/978/11 395/979/11 396/980/11
usemtl Material.012
f 425/981/9 429/982/9 405/983/9 422/984/9 419/985/9 417/986/9 421/987/9 407/988/9 413/989/9 411/990/9 409/991/9 414/992/9 403/993/9 437/994/9 435/995/9 433/996/9 438/997/9 401/998/9 430/999/9 427/1000/9
f 413/1001/8 407/1002/8 408/1003/8 415/1004/8
f 404/1005/8 403/993/8 414/1006/8 416/1007/8
f 422/1008/10 405/1009/10 406/1010/10 424/1011/10
f 408/1012/10 407/1013/10 421/1014/10 423/1015/10
f 404/1005/11 416/1016/11 410/1017/11 412/1018/11 415/1019/11 408/1020/11 423/1021/11 418/1022/11 420/1023/11 424/1024/11 406/1025/11 431/1026/11 426/1027/11 428/1028/11 432/1029/11 402/1030/11 440/1031/11 434/1032/11 436/1033/11 439/1034/11
f 437/994/7 403/993/7 404/1005/7 439/1034/7
f 402/1030/7 401/998/7 438/997/7 440/1031/7
f 430/1035/12 401/998/12 402/1030/12 432/1036/12
f 406/1010/12 405/1009/12 429/1037/12 431/1038/12
f 415/1039/7 412/1040/7 411/1041/7 413/1042/7
f 409/1043/10 410/1044/10 416/1045/10 414/1046/10
f 412/1040/8 410/1044/8 409/1043/8 411/1041/8
f 422/1047/8 424/1048/8 420/1049/8 419/1050/8
f 417/1051/12 418/1052/12 423/1053/12 421/1054/12
f 417/1055/10 419/1056/10 420/1057/10 418/1058/10
f 430/1059/10 432/1060/10 428/1061/10 427/1062/10
f 429/1063/7 425/1064/7 426/1065/7 431/1066/7
f 425/1064/12 427/1062/12 428/1061/12 426/1065/12
f 437/1067/12 439/1068/12 436/1069/12 435/1070/12
f 438/1071/8 433/1072/8 434/1073/8 440/1074/8
f 434/1075/7 433/1076/7 435/1077/7 436/1078/7
usemtl Material.011
f 465/1079/7 469/1080/7 445/1081/7 462/1082/7 459/1083/7 457/1084/7 461/1085/7 447/1086/7 453/1087/7 451/1088/7 449/1089/7 454/1090/7 443/1091/7 477/1092/7 475/1093/7 473/1094/7 478/1095/7 441/1096/7 470/1097/7 467/1098/7
f 453/1099/9 447/1100/9 448/1101/9 455/1102/9
f 444/1103/9 443/1091/9 454/1104/9 456/1105/9
f 462/1106/12 445/1107/12 446/1108/12 464/1109/12
f 448/1110/12 447/1111/12 461/1112/12 463/1113/12
f 444/1103/10 456/1114/10 450/1115/10 452/1116/10 455/1117/10 448/1118/10 463/1119/10 458/1120/10 460/1121/10 464/1122/10 446/1123/10 471/1124/10 466/1125/10 468/1126/10 472/1127/10 442/1128/10 480/1129/10 474/1130/10 476/1131/10 479/1132/10
f 477/1092/8 443/1091/8 444/1103/8 479/1132/8
f 442/1128/8 441/1096/8 478/1095/8 480/1129/8
f 470/1133/11 441/1096/11 442/1128/11 472/1134/11
f 446/1108/11 445/1107/11 469/1135/11 471/1136/11
f 455/1137/8 452/1138/8 451/1139/8 453/1140/8
f 449/1141/12 450/1142/12 456/1143/12 454/1144/12
f 452/1138/9 450/1142/9 449/1141/9 451/1139/9
f 462/1145/9 464/1146/9 460/1147/9 459/1148/9
f 457/1149/11 458/1150/11 463/1151/11 461/1152/11
f 457/1153/12 459/1154/12 460/1155/12 458/1156/12
f 470/1157/12 472/1158/12 468/1159/12 467/1160/12
f 469/1161/8 465/1162/8 466/1163/8 471/1164/8
f 465/1162/11 467/1160/11 468/1159/11 466/1163/11
f 477/1165/11 479/1166/11 476/1167/11 475/1168/11
f 478/1169/9 473/1170/9 474/1171/9 480/1172/9
f 474/1173/8 473/1174/8 475/1175/8 476/1176/8
usemtl Material.010
f 505/1177/12 509/1178/12 485/1179/12 502/1180/12 499/1181/12 497/1182/12 501/1183/12 487/1184/12 493/1185/12 491/1186/12 489/1187/12 494/1188/12 483/1189/12 517/1190/12 515/1191/12 513/1192/12 518/1193/12 481/1194/12 510/1195/12 507/1196/12
f 493/1197/9 487/1198/9 488/1199/9 495/1200/9
f 484/1201/9 483/1189/9 494/1202/9 496/1203/9
f 502/1204/10 485/1205/10 486/1206/10 504/1207/10
f 488/1208/10 487/1209/10 501/1210/10 503/1211/10
f 484/1201/8 496/1212/8 490/1213/8 492/1214/8 495/1215/8 488/1216/8 503/1217/8 498/1218/8 500/1219/8 504/1220/8 486/1221/8 511/1222/8 506/1223/8 508/1224/8 512/1225/8 482/1226/8 520/1227/8 514/1228/8 516/1229/8 519/1230/8
f 517/1190/7 483/1189/7 484/1201/7 519/1230/7
f 482/1226/7 481/1194/7 518/1193/7 520/1227/7
f 510/1231/11 481/1194/11 482/1226/11 512/1232/11
f 486/1206/11 485/1205/11 509/1233/11 511/1234/11
f 495/1235/7 492/1236/7 491/1237/7 493/1238/7
f 489/1239/10 490/1240/10 496/1241/10 494/1242/10
f 492/1236/9 490/1240/9 489/1239/9 491/1237/9
f 502/1243/9 504/1244/9 500/1245/9 499/1246/9
f 497/1247/11 498/1248/11 503/1249/11 501/1250/11
f 497/1251/10 499/1252/10 500/1253/10 498/1254/10
f 510/1255/10 512/1256/10 508/1257/10 507/1258/10
f 509/1259/7 505/1260/7 506/1261/7 511/1262/7
f 505/1260/11 507/1258/11 508/1257/11 506/1261/11
f 517/1263/11 519/1264/11 516/1265/11 515/1266/11
f 518/1267/9 513/1268/9 514/1269/9 520/1270/9
f 514/1271/7 513/1272/7 515/1273/7 516/1274/7
usemtl Material.009
f 545/1275/12 549/1276/12 525/1277/12 542/1278/12 539/1279/12 537/1280/12 541/1281/12 527/1282/12 533/1283/12 531/1284/12 529/1285/12 534/1286/12 523/1287/12 557/1288/12 555/1289/12 553/1290/12 558/1291/12 521/1292/12 550/1293/12 547/1294/12
f 533/1295/9 527/1296/9 528/1297/9 535/1298/9
f 524/1299/9 523/1287/9 534/1300/9 536/1301/9
f 542/1302/10 525/1303/10 526/1304/10 544/1305/10
f 528/1306/10 527/1307/10 541/1308/10 543/1309/10
f 524/1299/8 536/1310/8 530/1311/8 532/1312/8 535/1313/8 528/1314/8 543/1315/8 538/1316/8 540/1317/8 544/1318/8 526/1319/8 551/1320/8 546/1321/8 548/1322/8 552/1323/8 522/1324/8 560/1325/8 554/1326/8 556/1327/8 559/1328/8
f 557/1288/7 523/1287/7 524/1299/7 559/1328/7
f 522/1324/7 521/1292/7 558/1291/7 560/1325/7
f 550/1329/11 521/1292/11 522/1324/11 552/1330/11
f 526/1304/11 525/1303/11 549/1331/11 551/1332/11
f 535/1333/7 532/1334/7 531/1335/7 533/1336/7
f 529/1337/10 530/1338/10 536/1339/10 534/1340/10
f 532/1334/9 530/1338/9 529/1337/9 531/1335/9
f 542/1341/9 544/1342/9 540/1343/9 539/1344/9
f 537/1345/11 538/1346/11 543/1347/11 541/1348/11
f 537/1349/10 539/1350/10 540/1351/10 538/1352/10
f 550/1353/10 552/1354/10 548/1355/10 547/1356/10
f 549/1357/7 545/1358/7 546/1359/7 551/1360/7
f 545/1358/11 547/1356/11 548/1355/11 546/1359/11
f 557/1361/11 559/1362/11 556/1363/11 555/1364/11
f 558/1365/9 553/1366/9 554/1367/9 560/1368/9
f 554/1369/7 553/1370/7 555/1371/7 556/1372/7
